<?xml version="1.0" encoding="utf-8"?>
<!-- Generator: Adobe Illustrator 16.0.0, SVG Export Plug-In . SVG Version: 6.00 Build 0)  -->
<!DOCTYPE svg PUBLIC "-//W3C//DTD SVG 1.1//EN" "http://www.w3.org/Graphics/SVG/1.1/DTD/svg11.dtd">
<svg version="1.1" id="Layer_1" xmlns="http://www.w3.org/2000/svg" xmlns:xlink="http://www.w3.org/1999/xlink" x="0px" y="0px"
	 width="90px" height="90px" viewBox="0 0 90 90" enable-background="new 0 0 90 90" xml:space="preserve">
<g>
	<path fill="#1E1E1E" d="M30.016,43.158c0.168,0,0.338-0.031,0.503-0.095c4.858-1.885,9.95-2.729,15.146-2.505
		c0.79,0.036,1.416-0.562,1.448-1.33c0.033-0.768-0.562-1.416-1.33-1.449c-5.57-0.246-11.05,0.666-16.27,2.69
		c-0.717,0.278-1.072,1.083-0.795,1.8C28.934,42.82,29.459,43.158,30.016,43.158z"/>
	<path fill="#1E1E1E" d="M20.09,48.76c0.295,0,0.594-0.094,0.848-0.289c0.984-0.758,2.016-1.477,3.064-2.135
		c0.652-0.408,0.848-1.268,0.439-1.918c-0.406-0.649-1.266-0.846-1.917-0.438c-1.124,0.706-2.229,1.475-3.284,2.288
		c-0.609,0.469-0.723,1.342-0.254,1.951C19.26,48.572,19.672,48.76,20.09,48.76z"/>
	<path fill="#1E1E1E" d="M45.055,63.689c1.779,0,3.561-0.678,4.916-2.031c2.711-2.711,2.711-7.123,0-9.832
		c-0.543-0.543-1.424-0.543-1.967,0s-0.543,1.424,0,1.967c1.625,1.625,1.625,4.271,0,5.896c-1.626,1.629-4.272,1.627-5.898,0.002
		c-1.625-1.627-1.625-4.273,0-5.898c0.543-0.543,0.543-1.424,0-1.967c-0.542-0.543-1.424-0.545-1.967,0
		c-2.709,2.709-2.709,7.121,0,9.832C41.494,63.012,43.275,63.689,45.055,63.689z"/>
	<path fill="#1E1E1E" d="M78.17,56.969c0.002-0.016,0-0.033,0.001-0.049c0.006-0.133-0.005-0.266-0.037-0.395
		c-0.003-0.01-0.003-0.02-0.006-0.031c-0.036-0.135-0.097-0.262-0.173-0.381c-0.007-0.01-0.008-0.023-0.016-0.033
		c-0.016-0.023-0.033-0.045-0.049-0.068c-0.004-0.004-0.008-0.01-0.012-0.016c-4.737-6.98-11.229-12.284-18.783-15.334
		c-0.707-0.285-1.522,0.057-1.81,0.77c-0.288,0.711,0.056,1.522,0.769,1.81c5.154,2.081,9.775,5.298,13.622,9.427
		c-5.921-2.795-11.656-4.709-17.327-5.73c-0.291-0.164-0.615-0.215-0.936-0.154c-9.398-1.532-18.644-0.623-28.291,2.732
		c-0.033,0.008-0.068,0.012-0.102,0.025c-1.018,0.365-2.072,0.492-3.102,0.412l-2.39-0.598c-0.944-0.414-1.814-1.021-2.537-1.822
		c-0.515-0.572-1.394-0.617-1.964-0.104s-0.617,1.393-0.103,1.963c1.083,1.203,2.403,2.09,3.839,2.656
		c-0.195,0.088-0.389,0.174-0.584,0.262c-2.516,1.133-5.413,0.791-7.598-0.92c-0.604-0.477-1.479-0.367-1.951,0.236
		c-0.475,0.604-0.368,1.479,0.236,1.951c0.764,0.6,1.594,1.07,2.46,1.424c-1.963,1.482-4.427,2.184-6.899,1.934
		c-0.754-0.078-1.447,0.479-1.525,1.242s0.477,1.445,1.242,1.525C4.572,59.746,5,59.768,5.426,59.768
		c1.854,0,3.674-0.42,5.336-1.197c0.982,1.047,1.994,2.051,3.041,2.994c-1.676,0.238-3.293,0.891-4.694,1.945
		c-0.614,0.461-0.737,1.332-0.276,1.945c0.272,0.365,0.691,0.557,1.113,0.557c0.291,0,0.584-0.092,0.834-0.279
		c1.947-1.463,4.461-1.869,6.766-1.111c1.439,1.061,2.929,2.021,4.455,2.896c-1.412,0.422-2.746,1.135-3.885,2.152
		c-0.572,0.512-0.621,1.393-0.108,1.965c0.274,0.307,0.655,0.463,1.036,0.463c0.33,0,0.662-0.117,0.928-0.355
		c2.021-1.807,4.864-2.367,7.422-1.459c0.164,0.059,0.332,0.08,0.498,0.076c5.08,1.998,10.484,3.043,16.035,3.043h0.002
		c5.051,0,9.977-0.875,14.65-2.535c0.02-0.004,0.039-0.002,0.061-0.006c2.234-0.369,4.568,0.334,6.236,1.879
		c0.268,0.248,0.605,0.371,0.945,0.371c0.373,0,0.745-0.15,1.02-0.447c0.521-0.562,0.488-1.443-0.076-1.965
		c-0.928-0.859-2.007-1.518-3.163-1.977c1.018-0.51,2.022-1.049,3.007-1.637c1.736-0.281,3.522,0.07,5.033,0.988
		c0.227,0.137,0.476,0.203,0.723,0.203c0.468,0,0.927-0.238,1.188-0.668c0.399-0.656,0.191-1.512-0.466-1.912
		c-0.844-0.514-1.752-0.891-2.691-1.141c2.643-1.955,5.133-4.215,7.428-6.77c0.002-0.002,0.002-0.006,0.005-0.008
		c0.065-0.074,0.126-0.156,0.175-0.246c0.019-0.033,0.029-0.066,0.044-0.102c0.013-0.025,0.023-0.051,0.034-0.076
		C78.129,57.229,78.16,57.1,78.17,56.969z M53.014,49.469c3.867,4.23,3.768,10.812-0.326,14.906c-4.209,4.209-11.057,4.209-15.266,0
		c-4.148-4.148-4.199-10.855-0.17-15.078C42.53,48.531,47.738,48.59,53.014,49.469z M43.928,70.621c0,0,0,0-0.002,0
		c-9.01,0-17.622-2.936-24.957-8.4c-0.002-0.002-0.004-0.004-0.006-0.004c-1.833-1.367-3.586-2.891-5.246-4.566
		c1.822-0.984,3.618-1.893,5.391-2.715c0.139-0.059,0.281-0.105,0.42-0.172c0.043-0.02,0.079-0.049,0.119-0.072
		c1.935-0.881,3.844-1.666,5.73-2.352c0.198-0.057,0.396-0.113,0.592-0.184c0.068-0.025,0.129-0.059,0.189-0.092
		c2.399-0.838,4.768-1.52,7.113-2.037c-2.95,5.182-2.231,11.898,2.184,16.314c2.647,2.646,6.123,3.969,9.6,3.969
		s6.953-1.322,9.601-3.969C58.996,62,59.77,55.428,56.99,50.283c5.675,1.377,11.467,3.688,17.545,6.936
		C66.178,65.869,55.379,70.621,43.928,70.621z"/>
	<path fill="#1E1E1E" d="M86.605,31.778c-0.74-0.619-18.424-15.18-46.051-15.18c-5.084,0-16.169,2.227-23.816,7.007
		c-0.651,0.407-0.85,1.265-0.443,1.917c0.408,0.65,1.267,0.847,1.918,0.441c6.873-4.296,17.392-6.583,22.342-6.583
		c22.16,0,38.021,10.004,42.78,13.411c-2.948,1.729-7.408,2.981-10.172,1.423c-9.964-5.603-20.181-10.634-35.548-10.634
		c-9.988,0-20.23,2.634-30.445,7.828c-0.685,0.348-0.957,1.186-0.609,1.871c0.348,0.683,1.188,0.956,1.871,0.608
		c9.818-4.993,19.637-7.525,29.184-7.525c15.912,0,26.473,5.939,34.184,10.275c1.327,0.747,2.846,1.057,4.415,1.057
		c3.884,0,8.067-1.898,10.374-3.771c0.322-0.262,0.511-0.654,0.515-1.068C87.105,32.44,86.924,32.045,86.605,31.778z"/>
</g>
</svg>
