<?xml version="1.0" encoding="utf-8"?>
<!-- Generator: Adobe Illustrator 16.0.0, SVG Export Plug-In . SVG Version: 6.00 Build 0)  -->
<!DOCTYPE svg PUBLIC "-//W3C//DTD SVG 1.1//EN" "http://www.w3.org/Graphics/SVG/1.1/DTD/svg11.dtd">
<svg version="1.1" id="Layer_1" xmlns="http://www.w3.org/2000/svg" xmlns:xlink="http://www.w3.org/1999/xlink" x="0px" y="0px"
	 width="90px" height="90px" viewBox="0 0 90 90" enable-background="new 0 0 90 90" xml:space="preserve">
<g>
	<path fill="#1E1E1E" d="M85.567,31.967L65.7,17.066c-0.006-0.004-0.012-0.004-0.018-0.01c-0.107-0.076-0.225-0.137-0.352-0.182
		c-0.023-0.01-0.047-0.016-0.072-0.023c-0.125-0.037-0.254-0.062-0.393-0.062c-0.137,0-0.268,0.025-0.393,0.062
		c-0.023,0.008-0.047,0.014-0.072,0.023c-0.127,0.045-0.244,0.105-0.35,0.182c-0.006,0.006-0.014,0.006-0.02,0.01l-5.982,4.486
		c-1.207-6.104-6.598-10.723-13.051-10.725c-6.453,0-11.844,4.619-13.053,10.723l-5.979-4.484c-0.006-0.004-0.014-0.004-0.02-0.01
		c-0.105-0.076-0.225-0.137-0.352-0.182c-0.023-0.01-0.047-0.016-0.07-0.023c-0.125-0.037-0.256-0.062-0.393-0.062
		c-0.139,0-0.268,0.025-0.393,0.062c-0.025,0.008-0.049,0.014-0.074,0.023c-0.125,0.045-0.242,0.105-0.348,0.182
		c-0.008,0.004-0.016,0.006-0.021,0.01l-19.865,14.9c-0.352,0.264-0.557,0.676-0.557,1.113v44.699c0,0.527,0.299,1.01,0.768,1.244
		c0.475,0.238,1.035,0.188,1.457-0.131l19.033-14.273l19.031,14.273c0.006,0.004,0.014,0.006,0.02,0.01
		c0.105,0.078,0.223,0.139,0.35,0.184c0.025,0.008,0.049,0.016,0.074,0.023c0.125,0.035,0.254,0.062,0.391,0.062
		s0.268-0.027,0.391-0.062c0.025-0.008,0.051-0.016,0.076-0.023c0.125-0.045,0.242-0.105,0.348-0.184
		c0.008-0.004,0.016-0.004,0.021-0.01l19.031-14.273l19.033,14.273c0.418,0.318,0.984,0.369,1.457,0.131
		c0.469-0.234,0.768-0.717,0.768-1.244V33.08C86.124,32.643,85.919,32.23,85.567,31.967z M44.999,13.611
		c5.805,0,10.525,4.725,10.525,10.529c0,6.48-3.803,11.072-7.156,15.123c-1.293,1.561-2.496,3.014-3.369,4.453
		c-0.873-1.439-2.076-2.893-3.369-4.453c-3.355-4.051-7.158-8.643-7.158-15.123C34.472,18.334,39.192,13.611,44.999,13.611z
		 M83.343,75L66.257,62.186v-0.299c0-0.768-0.621-1.391-1.391-1.391c-0.768,0-1.391,0.623-1.391,1.391v0.299L45.642,75.561
		c-0.193-0.102-0.408-0.164-0.643-0.164c-0.232,0-0.449,0.062-0.643,0.164L26.524,62.186v-0.299c0-0.768-0.623-1.391-1.391-1.391
		c-0.77,0-1.393,0.623-1.393,1.391v0.299L6.657,75V33.775L24.491,20.4c0.193,0.102,0.408,0.164,0.643,0.164
		c0.232,0,0.449-0.062,0.643-0.164l5.938,4.453c0.266,7.102,4.412,12.127,7.773,16.184c2.213,2.67,4.121,4.977,4.121,6.943v0.992
		c0,0.77,0.623,1.393,1.391,1.393c0.77,0,1.393-0.623,1.393-1.393V47.98c0-1.967,1.908-4.273,4.119-6.943
		c3.361-4.059,7.504-9.082,7.771-16.18l5.941-4.457c0.193,0.102,0.41,0.164,0.643,0.164c0.234,0,0.449-0.062,0.643-0.164
		l17.834,13.375V75z"/>
	<path fill="#1E1E1E" d="M49.964,24.141c0-2.738-2.227-4.967-4.965-4.967c-2.736,0-4.965,2.229-4.965,4.967s2.229,4.965,4.965,4.965
		C47.737,29.105,49.964,26.879,49.964,24.141z M42.817,24.141c0-1.205,0.98-2.186,2.182-2.186c1.203,0,2.184,0.98,2.184,2.186
		c0,1.203-0.98,2.184-2.184,2.184C43.798,26.324,42.817,25.344,42.817,24.141z"/>
	<path fill="#1E1E1E" d="M25.134,45.639c-0.77,0-1.393,0.623-1.393,1.391v1.857c0,0.77,0.623,1.391,1.393,1.391
		c0.768,0,1.391-0.621,1.391-1.391v-1.857C26.524,46.262,25.901,45.639,25.134,45.639z"/>
	<path fill="#1E1E1E" d="M25.134,23.354c-0.77,0-1.393,0.623-1.393,1.391v1.857c0,0.768,0.623,1.391,1.393,1.391
		c0.768,0,1.391-0.623,1.391-1.391v-1.857C26.524,23.977,25.901,23.354,25.134,23.354z"/>
	<path fill="#1E1E1E" d="M25.134,53.066c-0.77,0-1.393,0.623-1.393,1.393v1.855c0,0.77,0.623,1.391,1.393,1.391
		c0.768,0,1.391-0.621,1.391-1.391v-1.855C26.524,53.689,25.901,53.066,25.134,53.066z"/>
	<path fill="#1E1E1E" d="M25.134,30.781c-0.77,0-1.393,0.623-1.393,1.393v1.855c0,0.77,0.623,1.391,1.393,1.391
		c0.768,0,1.391-0.621,1.391-1.391v-1.855C26.524,31.404,25.901,30.781,25.134,30.781z"/>
	<path fill="#1E1E1E" d="M25.134,38.209c-0.77,0-1.393,0.623-1.393,1.393v1.857c0,0.768,0.623,1.391,1.393,1.391
		c0.768,0,1.391-0.623,1.391-1.391v-1.857C26.524,38.832,25.901,38.209,25.134,38.209z"/>
	<path fill="#1E1E1E" d="M64.866,30.781c-0.768,0-1.391,0.623-1.391,1.393v1.855c0,0.77,0.623,1.391,1.391,1.391
		c0.77,0,1.391-0.621,1.391-1.391v-1.855C66.257,31.404,65.636,30.781,64.866,30.781z"/>
	<path fill="#1E1E1E" d="M64.866,23.354c-0.768,0-1.391,0.623-1.391,1.391v1.857c0,0.768,0.623,1.391,1.391,1.391
		c0.77,0,1.391-0.623,1.391-1.391v-1.857C66.257,23.977,65.636,23.354,64.866,23.354z"/>
	<path fill="#1E1E1E" d="M64.866,45.639c-0.768,0-1.391,0.623-1.391,1.391v1.857c0,0.77,0.623,1.391,1.391,1.391
		c0.77,0,1.391-0.621,1.391-1.391v-1.857C66.257,46.262,65.636,45.639,64.866,45.639z"/>
	<path fill="#1E1E1E" d="M64.866,53.066c-0.768,0-1.391,0.623-1.391,1.393v1.855c0,0.77,0.623,1.391,1.391,1.391
		c0.77,0,1.391-0.621,1.391-1.391v-1.855C66.257,53.689,65.636,53.066,64.866,53.066z"/>
	<path fill="#1E1E1E" d="M64.866,38.209c-0.768,0-1.391,0.623-1.391,1.393v1.857c0,0.768,0.623,1.391,1.391,1.391
		c0.77,0,1.391-0.623,1.391-1.391v-1.857C66.257,38.832,65.636,38.209,64.866,38.209z"/>
	<path fill="#1E1E1E" d="M44.999,67.979c-0.768,0-1.391,0.623-1.391,1.391v1.855c0,0.768,0.623,1.391,1.391,1.391
		c0.77,0,1.393-0.623,1.393-1.391v-1.855C46.392,68.602,45.769,67.979,44.999,67.979z"/>
	<path fill="#1E1E1E" d="M44.999,53.145c-0.768,0-1.391,0.623-1.391,1.391v1.854c0,0.77,0.623,1.393,1.391,1.393
		c0.77,0,1.393-0.623,1.393-1.393v-1.854C46.392,53.768,45.769,53.145,44.999,53.145z"/>
	<path fill="#1E1E1E" d="M44.999,60.562c-0.768,0-1.391,0.621-1.391,1.391v1.854c0,0.768,0.623,1.391,1.391,1.391
		c0.77,0,1.393-0.623,1.393-1.391v-1.854C46.392,61.184,45.769,60.562,44.999,60.562z"/>
</g>
</svg>
