<?xml version="1.0" encoding="utf-8"?>
<!-- Generator: Adobe Illustrator 16.0.0, SVG Export Plug-In . SVG Version: 6.00 Build 0)  -->
<!DOCTYPE svg PUBLIC "-//W3C//DTD SVG 1.1//EN" "http://www.w3.org/Graphics/SVG/1.1/DTD/svg11.dtd">
<svg version="1.1" id="Layer_1" xmlns="http://www.w3.org/2000/svg" xmlns:xlink="http://www.w3.org/1999/xlink" x="0px" y="0px"
	 width="90px" height="90px" viewBox="0 0 90 90" enable-background="new 0 0 90 90" xml:space="preserve">
<g>
	<path fill="#1E1E1E" d="M47.483,15.547c-1.972,0-3.576-2.161-3.576-4.817c0-0.769-0.622-1.392-1.391-1.392
		s-1.392,0.623-1.392,1.392c0,4.189,2.853,7.6,6.358,7.6s6.357-3.41,6.357-7.6V6.756c0-0.768-0.623-1.391-1.391-1.391
		c-0.138,0-0.194-0.021-0.59-0.493c-0.466-0.559-1.244-1.493-2.725-1.493c-1.479,0-2.26,0.936-2.726,1.494
		c-0.392,0.472-0.45,0.492-0.586,0.492s-0.193-0.021-0.586-0.493c-0.466-0.559-1.243-1.493-2.722-1.493
		c-0.769,0-1.392,0.622-1.392,1.391c0,0.768,0.623,1.391,1.392,1.391c0.136,0,0.192,0.021,0.584,0.492
		c0.466,0.559,1.243,1.494,2.724,1.494c1.479,0,2.259-0.935,2.725-1.493c0.394-0.473,0.449-0.493,0.587-0.493
		s0.194,0.021,0.59,0.493c0.289,0.349,0.704,0.845,1.333,1.168v2.908C51.059,13.386,49.454,15.547,47.483,15.547z"/>
	<path fill="#1E1E1E" d="M57.417,19.271h-1.989c-0.605,0-1.141,0.391-1.325,0.967l-1.23,3.846l-4.404-4.403
		c-0.129-0.13-0.284-0.233-0.456-0.304c-0.007-0.003-0.014-0.004-0.02-0.006c-0.158-0.062-0.329-0.1-0.509-0.1
		s-0.351,0.037-0.509,0.1c-0.006,0.002-0.013,0.003-0.02,0.006c-0.173,0.07-0.329,0.176-0.459,0.307l-4.402,4.402l-1.23-3.848
		c-0.184-0.576-0.72-0.967-1.325-0.967H37.55c-0.013,0-0.024,0.004-0.038,0.004c-1.683,0.01-3.265,0.669-4.457,1.861
		c-1.203,1.2-1.862,2.797-1.862,4.492v24.834v2.483c0,2.136,1.738,3.874,3.874,3.874c0.383,0,0.744-0.072,1.094-0.176v22.76
		l-9.167,4.582c-0.576,0.288-0.878,0.936-0.731,1.562c0.149,0.628,0.711,1.072,1.354,1.072h14.9c0.769,0,1.391-0.623,1.391-1.391
		v-3.576h0.598c0.769,0,1.392-0.623,1.392-1.391V54.833h3.174v25.431c0,0.389,0.161,0.74,0.419,0.992l-2.989,2.99
		c-0.398,0.398-0.517,0.996-0.301,1.517c0.215,0.519,0.722,0.858,1.284,0.858h9.934c0.768,0,1.391-0.623,1.391-1.391v-4.967V56.645
		c0.349,0.104,0.711,0.176,1.093,0.176c2.136,0,3.874-1.738,3.874-3.874v-2.482V25.629C63.774,22.124,60.922,19.271,57.417,19.271z
		 M58.808,49.072v-2.185h2.185v2.186L58.808,49.072z M56.442,22.054h0.975c1.971,0,3.575,1.604,3.575,3.575v18.477h-2.185v-13.51
		c0-0.768-0.623-1.391-1.391-1.391c-0.769,0-1.392,0.623-1.392,1.391v14.9v3.576h-2.999l-3.96-3.959L56.442,22.054z M51.963,26.926
		l-3.089,9.657V24.02l2.592,2.594C51.611,26.758,51.782,26.858,51.963,26.926z M43.5,26.613l2.592-2.592V36.58l-3.089-9.654
		C43.184,26.858,43.354,26.759,43.5,26.613z M33.975,25.631c-0.002-0.954,0.37-1.852,1.045-2.527
		c0.678-0.676,1.576-1.048,2.53-1.048c0.007,0,0.013-0.002,0.02-0.002h0.954l7.377,23.06l-3.96,3.959h-2.998V30.596
		c0-0.768-0.622-1.391-1.391-1.391s-1.392,0.623-1.392,1.391v13.51h-2.186V25.631z M36.158,46.888v2.186l-2.184-0.001v-2.185H36.158
		z M35.066,54.039c-0.604,0-1.092-0.49-1.092-1.093v-1.06c0.543-0.001,1.261-0.008,2.184-0.018v1.077
		C36.158,53.549,35.67,54.039,35.066,54.039z M41.125,83.839h-7.616l4.371-2.185h3.245V83.839z M44.505,52.051
		c-0.769,0-1.391,0.623-1.391,1.392v25.43h-0.598h-3.574V51.854h3.574c0.368,0,0.722-0.146,0.983-0.406l3.983-3.984l3.982,3.984
		c0.263,0.26,0.615,0.406,0.984,0.406h3.575v1.093v25.926h-4.173v-25.43c0-0.769-0.623-1.392-1.392-1.392H44.505z M50.84,83.839
		l2.187-2.185h2.999v2.185H50.84z M59.9,54.039c-0.604,0-1.093-0.49-1.093-1.093v-1.092h2.185v1.092
		C60.992,53.549,60.503,54.039,59.9,54.039z"/>
</g>
</svg>
