<?xml version="1.0" encoding="utf-8"?>
<!-- Generator: Adobe Illustrator 16.0.0, SVG Export Plug-In . SVG Version: 6.00 Build 0)  -->
<!DOCTYPE svg PUBLIC "-//W3C//DTD SVG 1.1//EN" "http://www.w3.org/Graphics/SVG/1.1/DTD/svg11.dtd">
<svg version="1.1" id="Layer_1" xmlns="http://www.w3.org/2000/svg" xmlns:xlink="http://www.w3.org/1999/xlink" x="0px" y="0px"
	 width="90px" height="90px" viewBox="0 0 90 90" enable-background="new 0 0 90 90" xml:space="preserve">
<g>
	<path fill="#1E1E1E" d="M86.126,64.867c0-0.006-0.002-0.012-0.002-0.02V29.107c0-2.958-2.406-5.364-5.365-5.364H74.81
		c-0.004,0-0.008-0.002-0.01-0.002c-0.004,0-0.008,0.002-0.01,0.002h-13.5v-3.576c0-3.506-3.299-6.357-7.352-6.357H36.06
		c-4.053,0-7.352,2.852-7.352,6.357v3.576H15.21c-0.002,0-0.006-0.002-0.01-0.002c-0.002,0-0.006,0.002-0.01,0.002H9.239
		c-2.959,0-5.365,2.406-5.365,5.364v41.721c0,2.957,2.406,5.363,5.365,5.363h71.52c2.959,0,5.365-2.406,5.365-5.363v-5.941
		C86.124,64.881,86.126,64.875,86.126,64.867z M6.657,36.363c0.752-0.093,1.482-0.259,2.184-0.493v28.195
		c-0.701-0.234-1.432-0.4-2.184-0.494V36.363z M11.524,34.563c1.256-0.836,2.334-1.914,3.17-3.168
		c0.156,0.061,0.326,0.098,0.504,0.098h8.543v10.235c-3.826,0.229-6.871,3.404-6.871,7.288c0,3.881,3.045,7.059,6.871,7.287v12.141
		h-8.543c-0.178,0-0.348,0.037-0.504,0.098c-0.836-1.254-1.914-2.332-3.17-3.168c0.062-0.158,0.098-0.326,0.098-0.504V35.068
		C11.622,34.889,11.587,34.719,11.524,34.563z M73.503,26.524c0.092,0.754,0.26,1.484,0.494,2.186h-9.111
		c-0.008,0-0.014-0.002-0.02-0.002h-9.934c-0.008,0-0.014,0.002-0.02,0.002h-38.91c0.234-0.701,0.4-1.432,0.494-2.186H73.503z
		 M36.456,68.443V31.493h17.086v18.152h-3.576c-0.768,0-1.391,0.623-1.391,1.393V59.9c0,0.77,0.623,1.391,1.391,1.391h3.576v7.152
		H36.456z M26.522,55.934c2.885-0.98,4.967-3.709,4.967-6.918c0-3.211-2.082-5.939-4.967-6.918V31.559h7.152v36.814h-7.152V55.934z
		 M24.179,44.488c2.498,0,4.529,2.03,4.529,4.528c0,2.496-2.031,4.527-4.529,4.527c-2.496,0-4.525-2.031-4.525-4.527
		C19.653,46.518,21.683,44.488,24.179,44.488z M56.323,68.441v-7.15h7.152v7.15H56.323z M51.356,58.51v-6.082h18.367v6.082H51.356z
		 M56.323,49.645V31.493h7.152v18.152H56.323z M16.001,71.227h57.996c-0.234,0.699-0.4,1.43-0.492,2.184h-57.01
		C16.401,72.656,16.235,71.926,16.001,71.227z M75.306,68.543c-0.158-0.062-0.328-0.1-0.506-0.1h-8.543v-7.152h4.857
		c0.77,0,1.393-0.621,1.393-1.391v-8.863c0-0.77-0.623-1.393-1.393-1.393h-4.857V31.493H74.8c0.178,0,0.348-0.037,0.504-0.099
		c0.836,1.254,1.914,2.332,3.17,3.167c-0.062,0.158-0.1,0.328-0.1,0.507v29.801c0,0.178,0.037,0.348,0.098,0.504
		C77.218,66.209,76.14,67.287,75.306,68.543z M81.157,35.87c0.701,0.234,1.43,0.4,2.184,0.492V63.57
		c-0.754,0.094-1.482,0.26-2.184,0.494V35.87z M83.341,29.107v4.444c-3.596-0.593-6.434-3.432-7.027-7.027h4.445
		C82.183,26.524,83.341,27.682,83.341,29.107z M31.489,20.167c0-1.938,2.092-3.576,4.57-3.576h17.879c2.479,0,4.57,1.639,4.57,3.576
		v3.576h-27.02V20.167z M9.239,26.524h4.445c-0.592,3.597-3.432,6.436-7.027,7.027v-4.444C6.657,27.682,7.815,26.524,9.239,26.524z
		 M6.657,70.828v-4.445c3.596,0.592,6.434,3.432,7.025,7.027H9.239C7.815,73.41,6.657,72.252,6.657,70.828z M80.759,73.41h-4.443
		c0.592-3.596,3.432-6.434,7.025-7.027v4.445C83.341,72.252,82.183,73.41,80.759,73.41z"/>
</g>
</svg>
