<?xml version="1.0" encoding="utf-8"?>
<!-- Generator: Adobe Illustrator 16.0.0, SVG Export Plug-In . SVG Version: 6.00 Build 0)  -->
<!DOCTYPE svg PUBLIC "-//W3C//DTD SVG 1.1//EN" "http://www.w3.org/Graphics/SVG/1.1/DTD/svg11.dtd">
<svg version="1.1" id="Layer_1" xmlns="http://www.w3.org/2000/svg" xmlns:xlink="http://www.w3.org/1999/xlink" x="0px" y="0px"
	 width="90px" height="90px" viewBox="0 0 90 90" enable-background="new 0 0 90 90" xml:space="preserve">
<g>
	<path fill="#1E1E1E" d="M82.251,11.326H57.417h-9.934H7.749c-0.768,0-1.391,0.623-1.391,1.391v19.867v9.934v34.766
		c0,0.77,0.623,1.391,1.391,1.391h39.734h9.934h24.834c0.768,0,1.391-0.621,1.391-1.391V42.517v-9.934V12.716
		C83.642,11.949,83.019,11.326,82.251,11.326z M80.858,31.193H68.321c-0.68-1.821-2.148-2.978-4.041-2.978
		c-0.82,0-1.668,0.216-2.52,0.642c-0.848,0.424-1.879,0.822-2.953,1.17V14.108h22.051V31.193z M80.858,41.125H68.741v-7.151h12.117
		V41.125z M33.976,59.025v-1.609c0-0.768-0.623-1.391-1.393-1.391h-1.609l9.189-9.189c0.152,0.016,0.299,0.049,0.457,0.049
		c0.82,0,1.668-0.215,2.518-0.641c1.461-0.73,3.494-1.387,5.439-1.82L33.976,59.025z M9.14,41.125v-7.151h27.02v7.151H9.14z
		 M65.958,41.524c0,0.605-0.119,2.58-1.678,2.58c-0.381,0-0.82-0.121-1.275-0.348c-1.615-0.808-3.732-1.511-5.809-1.989
		c0.703-0.792,1.215-1.757,1.453-2.826h3.734c0.768,0,1.391-0.623,1.391-1.391s-0.623-1.391-1.391-1.391h-3.734
		c-0.236-1.059-0.738-2.014-1.432-2.801c2.031-0.479,4.145-1.193,5.787-2.016c0.455-0.227,0.895-0.347,1.275-0.347
		c1.559,0,1.68,1.976,1.68,2.581L65.958,41.524z M52.45,41.125c-1.971,0-3.574-1.604-3.574-3.575c0-1.973,1.604-3.576,3.574-3.576
		c1.973,0,3.576,1.604,3.576,3.576C56.026,39.522,54.423,41.125,52.45,41.125z M47.794,33.236c-0.75,0.809-1.293,1.811-1.543,2.924
		h-3.734c-0.768,0-1.391,0.623-1.391,1.391s0.623,1.391,1.391,1.391h3.734c0.24,1.069,0.75,2.034,1.455,2.825
		c-2.076,0.479-4.195,1.183-5.811,1.99c-0.455,0.227-0.896,0.348-1.275,0.348c-1.559,0-1.68-1.975-1.68-2.58v-7.946
		c0-0.605,0.139-2.581,1.91-2.581c0.443,0,0.932,0.123,1.453,0.364C43.901,32.105,45.876,32.764,47.794,33.236z M56.323,44.424
		c1.943,0.433,3.979,1.089,5.438,1.82c0.852,0.426,1.699,0.641,2.52,0.641c0.158,0,0.303-0.033,0.455-0.049l9.191,9.189h-1.611
		c-0.768,0-1.391,0.623-1.391,1.391v1.609L56.323,44.424z M56.026,14.108v16.673c-1.201,0.258-2.33,0.412-3.203,0.412
		c-1.031,0-2.451-0.221-3.947-0.568V14.108H56.026z M46.093,14.108v15.741c-0.941-0.31-1.842-0.65-2.617-1.01
		c-0.891-0.414-1.773-0.624-2.625-0.624c-1.99,0-3.535,1.156-4.25,2.978H9.14V14.108H46.093z M9.14,43.909h27.439
		c0.232,0.625,0.559,1.168,0.965,1.615l-10.912,10.91c-0.396,0.396-0.516,0.996-0.301,1.516s0.723,0.859,1.285,0.859h3.576v3.574
		c0,0.562,0.34,1.07,0.859,1.285c0.172,0.072,0.354,0.107,0.531,0.107c0.363,0,0.719-0.143,0.984-0.408l12.525-12.525v25.051H9.14
		V43.909z M48.876,75.893V48.059l3.574-3.574l3.576,3.576v27.832H48.876z M58.808,75.893V50.844l12.523,12.523
		c0.268,0.266,0.623,0.408,0.984,0.408c0.18,0,0.359-0.035,0.533-0.107c0.52-0.215,0.857-0.723,0.857-1.285v-3.574h3.578
		c0.562,0,1.068-0.34,1.283-0.859s0.098-1.119-0.301-1.516l-10.91-10.91c0.406-0.447,0.73-0.99,0.965-1.615h12.537v31.984H58.808z"
		/>
</g>
</svg>
