<?xml version="1.0" encoding="utf-8"?>
<!-- Generator: Adobe Illustrator 16.0.0, SVG Export Plug-In . SVG Version: 6.00 Build 0)  -->
<!DOCTYPE svg PUBLIC "-//W3C//DTD SVG 1.1//EN" "http://www.w3.org/Graphics/SVG/1.1/DTD/svg11.dtd">
<svg version="1.1" id="Layer_1" xmlns="http://www.w3.org/2000/svg" xmlns:xlink="http://www.w3.org/1999/xlink" x="0px" y="0px"
	 width="90px" height="90px" viewBox="0 0 90 90" enable-background="new 0 0 90 90" xml:space="preserve">
<g>
	<path fill="#1E1E1E" d="M69.834,75.706h4.967c0.768,0,1.391-0.622,1.391-1.391V58.438c0-2.218-1.244-4.222-3.252-5.231
		c-0.391-0.198-0.857-0.197-1.25,0.001c-2.002,1.011-3.246,3.015-3.246,5.23v15.878C68.443,75.084,69.066,75.706,69.834,75.706z
		 M71.225,58.438c0-0.911,0.404-1.755,1.092-2.334c0.688,0.579,1.094,1.423,1.094,2.334v14.486h-2.186V58.438z"/>
	<path fill="#1E1E1E" d="M18.307,53.206c-0.393-0.198-0.857-0.197-1.252,0.001c-2.002,1.011-3.246,3.015-3.246,5.23v15.878
		c0,0.769,0.623,1.391,1.393,1.391h4.967c0.768,0,1.391-0.622,1.391-1.391V58.438C21.559,56.22,20.312,54.216,18.307,53.206z
		 M18.775,72.924h-2.184V58.438c0-0.911,0.404-1.755,1.092-2.334c0.688,0.579,1.092,1.423,1.092,2.334V72.924z"/>
	<path fill="#1E1E1E" d="M45.002,18.29c-4.602,0-8.348,3.746-8.348,8.349c0,4.6,3.746,8.341,8.348,8.341s8.346-3.741,8.346-8.341
		C53.348,22.036,49.604,18.29,45.002,18.29z M45.002,32.197c-3.068,0-5.564-2.493-5.564-5.559c0-3.069,2.496-5.566,5.564-5.566
		s5.562,2.497,5.562,5.566C50.564,29.704,48.07,32.197,45.002,32.197z"/>
	<path fill="#1E1E1E" d="M85.533,47.376L66.258,33.858V19.682c0-0.453-0.221-0.878-0.592-1.139L45.799,4.611
		c-0.479-0.335-1.117-0.335-1.596,0L24.336,18.543c-0.371,0.261-0.594,0.686-0.594,1.139v14.177L4.469,47.376
		c-0.371,0.261-0.594,0.686-0.594,1.139v35.734c0,0.768,0.623,1.391,1.393,1.391h19.867c0.273,0,0.543-0.081,0.77-0.233l14.9-9.934
		c0.387-0.258,0.621-0.692,0.621-1.157V62.419c0-2.613,1.352-4.999,3.576-6.379c2.223,1.38,3.574,3.765,3.574,6.379v11.896
		c0,0.465,0.232,0.899,0.619,1.157l14.9,9.934c0.229,0.152,0.498,0.233,0.771,0.233h19.867c0.768,0,1.391-0.623,1.391-1.391V48.515
		C86.125,48.062,85.904,47.637,85.533,47.376z M83.344,82.857H65.289l-13.93-9.286V62.419c0-3.91-2.197-7.439-5.734-9.213
		c-0.391-0.198-0.854-0.198-1.248,0c-3.535,1.773-5.734,5.303-5.734,9.213v11.152l-13.93,9.286H6.658V49.238l19.273-13.518
		c0.373-0.261,0.594-0.686,0.594-1.139V20.405L45,7.449l18.477,12.956v14.177c0,0.453,0.221,0.878,0.592,1.139l19.275,13.518V82.857
		z"/>
</g>
</svg>
