<?xml version="1.0" encoding="utf-8"?>
<!-- Generator: Adobe Illustrator 16.0.0, SVG Export Plug-In . SVG Version: 6.00 Build 0)  -->
<!DOCTYPE svg PUBLIC "-//W3C//DTD SVG 1.1//EN" "http://www.w3.org/Graphics/SVG/1.1/DTD/svg11.dtd">
<svg version="1.1" id="Layer_1" xmlns="http://www.w3.org/2000/svg" xmlns:xlink="http://www.w3.org/1999/xlink" x="0px" y="0px"
	 width="90px" height="90px" viewBox="0 0 90 90" enable-background="new 0 0 90 90" xml:space="preserve">
<g>
	<g>
		<path fill="#2E2A25" d="M45,82.533c-13.196,0-23.935-10.737-23.935-23.935c0-13.196,10.738-23.934,23.935-23.934
			c13.197,0,23.935,10.737,23.935,23.934C68.935,71.796,58.197,82.533,45,82.533z M45,37.204c-11.797,0-21.395,9.598-21.395,21.395
			c0,11.799,9.598,21.396,21.395,21.396c11.798,0,21.396-9.597,21.396-21.396C66.396,46.802,56.798,37.204,45,37.204z"/>
	</g>
	<g>
		<polygon fill="#FFFFFF" points="35.935,22.335 54.065,22.335 58.599,26.868 45,35.935 31.401,26.867 		"/>
		<path fill="#2E2A25" d="M45,37.204c-0.245,0-0.49-0.072-0.703-0.214l-13.6-9.066c-0.316-0.211-0.521-0.553-0.56-0.932
			c-0.037-0.378,0.098-0.754,0.366-1.022l4.533-4.532c0.237-0.238,0.561-0.372,0.897-0.372h18.131c0.337,0,0.659,0.134,0.898,0.372
			l4.532,4.533c0.27,0.269,0.402,0.645,0.365,1.022c-0.037,0.379-0.242,0.721-0.558,0.932l-13.6,9.065
			C45.491,37.132,45.246,37.204,45,37.204z M33.394,26.67L45,34.409l11.606-7.738l-3.066-3.066H36.46L33.394,26.67z"/>
	</g>
	<g>
		<path fill="#2E2A25" d="M45,77.094c-10.198,0-18.494-8.297-18.494-18.495c0-10.197,8.296-18.494,18.494-18.494
			c10.199,0,18.495,8.297,18.495,18.494C63.495,68.797,55.199,77.094,45,77.094z M45,42.644c-8.798,0-15.955,7.157-15.955,15.955
			c0,8.799,7.157,15.956,15.955,15.956c8.799,0,15.956-7.157,15.956-15.956C60.956,49.801,53.799,42.644,45,42.644z"/>
	</g>
	<g>
		<g>
			<path fill="#FFFFFF" d="M66.758,30.496c-1.087,0-2.311,0.001-3.626,0"/>
			<path fill="#2E2A25" d="M65.668,31.766h-2.536c-0.701-0.001-1.27-0.569-1.27-1.271c0-0.7,0.568-1.269,1.27-1.269l0,0l2.536,0.001
				l1.09-0.001c0.701,0,1.271,0.568,1.271,1.27s-0.569,1.27-1.271,1.27H65.668z"/>
		</g>
		<g>
			<path fill="#FFFFFF" d="M26.867,30.497c-1.313,0-2.535-0.001-3.626,0"/>
			<path fill="#2E2A25" d="M23.241,31.767c-0.7,0-1.269-0.567-1.27-1.269c0-0.701,0.567-1.27,1.269-1.271h3.627
				c0.701,0,1.27,0.568,1.27,1.27s-0.568,1.27-1.27,1.27l-1.317-0.001L23.241,31.767L23.241,31.767z"/>
		</g>
		<g>
			<path fill="#FFFFFF" d="M32.178,17.675c-0.928-0.928-1.794-1.793-2.563-2.564"/>
			<path fill="#2E2A25" d="M32.178,18.944c-0.325,0-0.649-0.124-0.897-0.372l-2.564-2.564c-0.495-0.496-0.494-1.3,0.001-1.795
				c0.496-0.496,1.299-0.495,1.795,0.001l2.563,2.563c0.496,0.495,0.496,1.299,0,1.795C32.828,18.82,32.503,18.944,32.178,18.944z"
				/>
		</g>
		<g>
			<path fill="#FFFFFF" d="M60.384,15.11c-0.769,0.771-1.636,1.637-2.564,2.564"/>
			<path fill="#2E2A25" d="M57.819,18.944c-0.323,0-0.649-0.124-0.897-0.372c-0.496-0.496-0.496-1.3,0-1.795l2.564-2.563
				c0.495-0.493,1.298-0.496,1.793-0.002c0.498,0.495,0.498,1.299,0.002,1.796l-2.563,2.564
				C58.47,18.82,58.144,18.944,57.819,18.944z"/>
		</g>
		<g>
			<path fill="#FFFFFF" d="M45,8.736c0,1.09-0.001,2.312,0,3.627"/>
			<path fill="#2E2A25" d="M45,13.633c-0.701,0-1.27-0.568-1.271-1.269V8.736c0-0.701,0.569-1.27,1.271-1.27s1.27,0.568,1.27,1.27
				v3.626C46.27,13.063,45.701,13.632,45,13.633L45,13.633z"/>
		</g>
	</g>
	<g>
		<line fill="#FFFFFF" x1="31.401" y1="26.868" x2="58.599" y2="26.868"/>
		<path fill="#2E2A25" d="M58.599,28.138H31.401c-0.701,0-1.27-0.568-1.27-1.27s0.568-1.27,1.27-1.27h27.197
			c0.701,0,1.27,0.568,1.27,1.27S59.3,28.138,58.599,28.138z"/>
	</g>
	<g>
		<path fill="#2E2A25" d="M45,37.204c-0.48,0-0.92-0.272-1.135-0.702l-4.533-9.066c-0.088-0.176-0.134-0.37-0.134-0.567v-4.533
			c0-0.701,0.568-1.27,1.27-1.27s1.27,0.568,1.27,1.27v4.234L45,33.096l3.264-6.526v-4.234c0-0.701,0.568-1.27,1.27-1.27
			s1.27,0.568,1.27,1.27v4.533c0,0.197-0.046,0.392-0.135,0.567l-4.531,9.066C45.921,36.932,45.481,37.204,45,37.204z"/>
	</g>
</g>
</svg>
