<?xml version="1.0" encoding="utf-8"?>
<!-- Generator: Adobe Illustrator 16.0.0, SVG Export Plug-In . SVG Version: 6.00 Build 0)  -->
<!DOCTYPE svg PUBLIC "-//W3C//DTD SVG 1.1//EN" "http://www.w3.org/Graphics/SVG/1.1/DTD/svg11.dtd">
<svg version="1.1" id="Layer_1" xmlns="http://www.w3.org/2000/svg" xmlns:xlink="http://www.w3.org/1999/xlink" x="0px" y="0px"
	 width="90px" height="90px" viewBox="0 0 90 90" enable-background="new 0 0 90 90" xml:space="preserve">
<g>
	<path fill="#1E1E1E" d="M72.316,13.809H22.65c-3.506,0-6.357,2.853-6.357,6.357v14.627l-3.136-1.045
		c-0.425-0.141-0.893-0.069-1.253,0.19c-0.363,0.261-0.578,0.681-0.578,1.128v34.768c0,0.768,0.622,1.391,1.391,1.391h9.934h3.575
		v3.576c0,0.562,0.34,1.069,0.86,1.284c0.171,0.071,0.351,0.106,0.531,0.106c0.36,0,0.718-0.142,0.983-0.407l4.561-4.56h18.714
		l4.559,4.56c0.266,0.266,0.623,0.407,0.982,0.407c0.18,0,0.361-0.035,0.533-0.106c0.52-0.215,0.859-0.722,0.859-1.284v-3.576h3.574
		h9.934c0.77,0,1.391-0.623,1.391-1.391V35.066c0-0.447-0.215-0.867-0.578-1.128c-0.361-0.26-0.824-0.331-1.252-0.19l-3.135,1.045
		V21.558h8.541c0.77,0,1.391-0.622,1.391-1.392C78.674,16.661,75.822,13.809,72.316,13.809z M27.617,68.442h-1.608l4.223-4.223
		c0.152,0.017,0.297,0.049,0.455,0.049c0.82,0,1.668-0.216,2.521-0.642c1.459-0.729,3.492-1.387,5.437-1.818l-9.636,9.635v-1.609
		C29.007,69.065,28.385,68.442,27.617,68.442z M56.025,58.907c0,0.604-0.119,2.58-1.678,2.58c-0.381,0-0.82-0.12-1.275-0.347
		c-1.615-0.809-3.734-1.512-5.811-1.99c0.705-0.791,1.215-1.757,1.455-2.826h3.732c0.77,0,1.393-0.622,1.393-1.391
		s-0.623-1.391-1.393-1.391h-3.732c-0.238-1.059-0.74-2.014-1.432-2.801c2.029-0.479,4.143-1.193,5.787-2.016
		c0.455-0.227,0.895-0.347,1.275-0.347c1.559,0,1.678,1.976,1.678,2.58V58.907z M38.941,54.934c0-1.973,1.604-3.576,3.576-3.576
		c1.971,0,3.575,1.604,3.575,3.576s-1.604,3.576-3.575,3.576C40.545,58.51,38.941,56.906,38.941,54.934z M36.317,53.543h-3.733
		c-0.769,0-1.392,0.622-1.392,1.391s0.623,1.391,1.392,1.391h3.733c0.24,1.069,0.75,2.035,1.454,2.826
		c-2.075,0.479-4.194,1.182-5.811,1.99c-0.454,0.227-0.895,0.347-1.274,0.347c-1.558,0-1.679-1.976-1.679-2.58V50.96
		c0-0.604,0.138-2.58,1.909-2.58c0.444,0,0.934,0.123,1.453,0.364c1.598,0.743,3.573,1.402,5.491,1.875
		C37.11,51.428,36.567,52.429,36.317,53.543z M35.943,68.442l6.576-6.575l6.573,6.575H35.943z M56.025,69.834v1.609l-9.633-9.635
		c1.943,0.433,3.975,1.09,5.436,1.818c0.852,0.426,1.699,0.642,2.52,0.642c0.158,0,0.305-0.032,0.457-0.049l4.223,4.223h-1.611
		C56.648,68.442,56.025,69.065,56.025,69.834z M70.926,68.442h-7.967l-5.535-5.536c0.865-0.951,1.385-2.337,1.385-3.999V50.96
		c0-3.156-1.836-5.361-4.461-5.361c-0.82,0-1.668,0.216-2.52,0.642c-2.533,1.266-6.626,2.336-8.939,2.336
		c-2.322,0-6.604-1.078-9.348-2.354c-0.891-0.414-1.773-0.624-2.625-0.624c-2.763,0-4.691,2.205-4.691,5.361v7.947
		c0,1.663,0.52,3.049,1.386,4l-5.536,5.535h-7.967V36.996l27.969,9.323c0.287,0.095,0.594,0.095,0.881,0l27.968-9.323V68.442z
		 M42.517,43.534L18.93,35.672c0.09-0.184,0.145-0.387,0.145-0.605v-14.9c0-1.972,1.604-3.575,3.575-3.575h44.415
		c-0.697,1.02-1.105,2.251-1.105,3.575v14.9c0,0.219,0.055,0.422,0.145,0.605L42.517,43.534z M69.023,18.775
		c0.543-1.283,1.816-2.185,3.293-2.185c1.479,0,2.752,0.902,3.295,2.185H69.023z"/>
	<path fill="#1E1E1E" d="M57.416,30.695c-0.727,0-1.09-0.392-1.869-1.43c-0.805-1.072-1.91-2.543-4.096-2.543
		c-2.188,0-3.291,1.469-4.096,2.542c-0.779,1.039-1.145,1.431-1.873,1.431c-0.726,0-1.086-0.392-1.864-1.43
		c-0.805-1.072-1.907-2.543-4.092-2.543s-3.286,1.471-4.092,2.543c-0.777,1.038-1.139,1.43-1.864,1.43
		c-0.724,0-1.086-0.392-1.862-1.429c-0.806-1.073-1.907-2.544-4.092-2.544c-0.769,0-1.392,0.623-1.392,1.391
		c0,0.769,0.623,1.391,1.392,1.391c0.726,0,1.089,0.393,1.864,1.431c0.806,1.073,1.907,2.543,4.09,2.543
		c2.185,0,3.287-1.47,4.092-2.543c0.778-1.038,1.139-1.431,1.864-1.431s1.087,0.393,1.864,1.431
		c0.806,1.073,1.907,2.543,4.092,2.543c2.187,0,3.291-1.47,4.095-2.542c0.781-1.039,1.145-1.432,1.873-1.432
		s1.092,0.393,1.871,1.432c0.807,1.072,1.908,2.542,4.094,2.542c0.77,0,1.393-0.622,1.393-1.391S58.186,30.695,57.416,30.695z"/>
</g>
</svg>
