<?xml version="1.0" encoding="utf-8"?>
<!-- Generator: Adobe Illustrator 16.0.0, SVG Export Plug-In . SVG Version: 6.00 Build 0)  -->
<!DOCTYPE svg PUBLIC "-//W3C//DTD SVG 1.1//EN" "http://www.w3.org/Graphics/SVG/1.1/DTD/svg11.dtd">
<svg version="1.1" id="Layer_1" xmlns="http://www.w3.org/2000/svg" xmlns:xlink="http://www.w3.org/1999/xlink" x="0px" y="0px"
	 width="90px" height="90px" viewBox="0 0 90 90" enable-background="new 0 0 90 90" xml:space="preserve">
<g>
	<path fill="#1E1E1E" d="M10.232,73.707h69.535c0.768,0,1.391-0.621,1.391-1.391V58.41c0-4.053-3.299-7.352-7.352-7.352h-2.582
		V38.543c0-4.054-3.297-7.351-7.352-7.351h-2.582V18.677c0-4.054-3.297-7.352-7.352-7.352H36.061c-4.053,0-7.352,3.298-7.352,7.352
		v12.516h-2.582c-4.053,0-7.352,3.297-7.352,7.351v12.515h-2.582c-4.053,0-7.352,3.299-7.352,7.352v13.906
		C8.842,73.086,9.465,73.707,10.232,73.707z M78.377,70.926H11.623v-8.227c0.117,0.148,0.24,0.311,0.379,0.502
		c0.787,1.08,1.865,2.561,4.02,2.561s3.232-1.48,4.02-2.561c0.748-1.025,1.096-1.414,1.771-1.414s1.021,0.387,1.77,1.414
		c0.787,1.08,1.865,2.561,4.02,2.561c2.156,0,3.232-1.48,4.021-2.561c0.748-1.025,1.094-1.414,1.771-1.414s1.023,0.389,1.773,1.416
		c0.787,1.08,1.865,2.559,4.02,2.559c2.156,0,3.234-1.479,4.021-2.559c0.75-1.027,1.096-1.416,1.773-1.416
		c0.676,0,1.021,0.389,1.77,1.414c0.787,1.08,1.863,2.561,4.018,2.561c2.156,0,3.234-1.479,4.021-2.559
		c0.75-1.027,1.096-1.416,1.773-1.416s1.023,0.389,1.773,1.416c0.787,1.08,1.867,2.559,4.021,2.559c2.156,0,3.234-1.479,4.021-2.559
		c0.75-1.027,1.098-1.416,1.775-1.416c0.68,0,1.027,0.389,1.779,1.416c0.787,1.08,1.867,2.559,4.025,2.559s3.238-1.479,4.027-2.559
		c0.145-0.197,0.27-0.363,0.389-0.514V70.926z M36.061,14.107h17.879c2.52,0,4.57,2.051,4.57,4.57v0.769
		c-1.584,0.39-2.551,1.398-3.352,2.253c-0.953,1.016-1.508,1.547-2.713,1.547c-1.207,0-1.762-0.531-2.717-1.547
		c-1.014-1.081-2.275-2.426-4.74-2.426s-3.725,1.345-4.738,2.426c-0.951,1.018-1.504,1.547-2.707,1.547s-1.754-0.529-2.707-1.547
		c-0.799-0.854-1.764-1.862-3.344-2.253v-0.769C31.492,16.158,33.541,14.107,36.061,14.107z M31.492,22.416
		c0.428,0.26,0.816,0.654,1.314,1.186c1.012,1.081,2.271,2.427,4.736,2.427c2.463,0,3.725-1.346,4.738-2.427
		c0.951-1.018,1.504-1.547,2.707-1.547c1.205,0,1.76,0.531,2.713,1.547c1.014,1.081,2.277,2.427,4.744,2.427
		c2.465,0,3.727-1.346,4.74-2.427c0.5-0.532,0.893-0.928,1.324-1.188v8.779H31.492V22.416z M26.127,33.974h37.746
		c2.52,0,4.57,2.051,4.57,4.569v0.816c-1.352,0.445-2.176,1.484-2.814,2.301c-0.824,1.055-1.211,1.451-2.014,1.451
		c-0.801,0-1.188-0.396-2.014-1.451c-0.832-1.064-1.971-2.521-4.203-2.521c-2.23,0-3.369,1.458-4.201,2.521
		c-0.822,1.055-1.209,1.451-2.008,1.451s-1.184-0.396-2.008-1.451c-0.83-1.063-1.969-2.521-4.199-2.521
		c-2.229,0-3.367,1.458-4.197,2.521c-0.824,1.055-1.209,1.451-2.008,1.451c-0.795,0-1.182-0.396-2.004-1.451
		c-0.828-1.063-1.967-2.521-4.195-2.521c-2.23,0-3.367,1.458-4.199,2.521c-0.822,1.055-1.209,1.451-2.006,1.451
		c-0.799,0-1.184-0.396-2.006-1.451c-0.637-0.814-1.459-1.855-2.809-2.301v-0.816C21.559,36.025,23.607,33.974,26.127,33.974z
		 M21.559,42.629c0.184,0.2,0.381,0.442,0.615,0.743c0.832,1.063,1.969,2.522,4.199,2.522c2.229,0,3.367-1.458,4.199-2.521
		c0.822-1.055,1.209-1.453,2.006-1.453s1.182,0.398,2.004,1.452c0.83,1.063,1.967,2.522,4.195,2.522c2.23,0,3.367-1.458,4.199-2.522
		c0.822-1.054,1.209-1.452,2.006-1.452c0.799,0,1.186,0.398,2.008,1.452c0.83,1.063,1.969,2.522,4.199,2.522
		s3.369-1.458,4.201-2.521c0.822-1.055,1.209-1.453,2.008-1.453c0.801,0,1.188,0.398,2.014,1.453
		c0.832,1.064,1.973,2.521,4.203,2.521c2.232,0,3.373-1.457,4.205-2.521c0.238-0.305,0.438-0.547,0.623-0.748v8.433H21.559V42.629z
		 M16.193,53.842h57.613c2.52,0,4.57,2.049,4.57,4.568v0.834c-1.271,0.459-2.037,1.502-2.635,2.318
		c-0.752,1.029-1.1,1.416-1.781,1.416c-0.68,0-1.029-0.387-1.779-1.416c-0.789-1.078-1.869-2.557-4.025-2.557
		s-3.236,1.479-4.021,2.559c-0.75,1.027-1.098,1.414-1.775,1.414s-1.023-0.387-1.773-1.414c-0.787-1.08-1.865-2.559-4.021-2.559
		s-3.234,1.479-4.021,2.559c-0.748,1.027-1.096,1.414-1.773,1.414c-0.674,0-1.021-0.387-1.77-1.414
		c-0.785-1.08-1.863-2.559-4.018-2.559s-3.234,1.479-4.02,2.559c-0.75,1.027-1.098,1.414-1.775,1.414s-1.023-0.387-1.773-1.414
		c-0.787-1.08-1.863-2.559-4.02-2.559s-3.232,1.479-4.02,2.559c-0.75,1.027-1.096,1.414-1.773,1.414
		c-0.676,0-1.023-0.387-1.771-1.414c-0.785-1.08-1.863-2.559-4.018-2.559s-3.232,1.479-4.018,2.559
		c-0.75,1.027-1.098,1.414-1.773,1.414s-1.021-0.387-1.77-1.414c-0.596-0.816-1.359-1.859-2.629-2.32V58.41
		C11.623,55.891,13.674,53.842,16.193,53.842z"/>
	<path fill="#1E1E1E" d="M84.734,75.893H5.266c-0.768,0-1.391,0.623-1.391,1.391s0.623,1.391,1.391,1.391h79.469
		c0.768,0,1.391-0.623,1.391-1.391S85.502,75.893,84.734,75.893z"/>
</g>
</svg>
