<?xml version="1.0" encoding="utf-8"?>
<!-- Generator: Adobe Illustrator 16.0.0, SVG Export Plug-In . SVG Version: 6.00 Build 0)  -->
<!DOCTYPE svg PUBLIC "-//W3C//DTD SVG 1.1//EN" "http://www.w3.org/Graphics/SVG/1.1/DTD/svg11.dtd">
<svg version="1.1" id="Layer_1" xmlns="http://www.w3.org/2000/svg" xmlns:xlink="http://www.w3.org/1999/xlink" x="0px" y="0px"
	 width="90px" height="90px" viewBox="0 0 90 90" enable-background="new 0 0 90 90" xml:space="preserve">
<g>
	<path fill="#1E1E1E" d="M79.767,3.875H30.101c-0.77,0-1.393,0.623-1.393,1.392V74.8v9.934c0,0.769,0.623,1.392,1.393,1.392h49.666
		c0.768,0,1.391-0.623,1.391-1.392V64.867V5.267C81.157,4.498,80.534,3.875,79.767,3.875z M31.491,76.191h38.342l0,0l0,0
		c0.18,0,0.35-0.037,0.508-0.099c0.006-0.003,0.014-0.004,0.021-0.007c0.17-0.07,0.324-0.173,0.453-0.301
		c0-0.001,0.002-0.001,0.002-0.001l7.559-7.56v10.151H31.491V76.191z M71.224,71.442v-5.185h5.184L71.224,71.442z M31.491,6.657
		h46.885v56.818h-8.543c-0.768,0-1.391,0.623-1.391,1.392v8.542H31.491V6.657z M31.491,83.343v-2.185h46.885v2.185H31.491z"/>
	<path fill="#1E1E1E" d="M49.966,20.763c-0.768,0-1.391,0.623-1.391,1.392v1.588h-7.15v-7.151h3.574c0.77,0,1.393-0.623,1.393-1.391
		c0-0.769-0.623-1.392-1.393-1.392h-4.967c-0.768,0-1.391,0.623-1.391,1.392v9.933c0,0.769,0.623,1.392,1.391,1.392h9.934
		c0.77,0,1.393-0.623,1.393-1.392v-2.979C51.358,21.386,50.735,20.763,49.966,20.763z"/>
	<path fill="#1E1E1E" d="M49.966,53.542h-9.934c-0.768,0-1.391,0.623-1.391,1.392v9.934c0,0.768,0.623,1.391,1.391,1.391h9.934
		c0.77,0,1.393-0.623,1.393-1.391v-9.934C51.358,54.165,50.735,53.542,49.966,53.542z M48.575,63.476h-7.15v-7.151h7.15V63.476z"/>
	<path fill="#1E1E1E" d="M59.899,21.558h9.934c0.77,0,1.391-0.623,1.391-1.391c0-0.769-0.621-1.392-1.391-1.392h-9.934
		c-0.768,0-1.391,0.623-1.391,1.392C58.509,20.935,59.132,21.558,59.899,21.558z"/>
	<path fill="#1E1E1E" d="M59.899,41.425h9.934c0.77,0,1.391-0.623,1.391-1.392s-0.621-1.391-1.391-1.391h-9.934
		c-0.768,0-1.391,0.622-1.391,1.391S59.132,41.425,59.899,41.425z"/>
	<path fill="#1E1E1E" d="M71.224,59.9c0-0.769-0.621-1.392-1.391-1.392h-9.934c-0.768,0-1.391,0.623-1.391,1.392
		s0.623,1.391,1.391,1.391h9.934C70.603,61.291,71.224,60.669,71.224,59.9z"/>
	<path fill="#1E1E1E" d="M20.167,8.842h-9.934c-0.77,0-1.391,0.623-1.391,1.392v59.601c0,0.104,0.014,0.205,0.035,0.303
		c0.006,0.025,0.016,0.05,0.023,0.074c0.02,0.074,0.045,0.146,0.078,0.214c0.004,0.01,0.006,0.021,0.01,0.03l4.818,9.639v4.64
		c0,0.769,0.623,1.392,1.393,1.392c0.768,0,1.391-0.623,1.391-1.392v-4.64l4.818-9.639c0.006-0.01,0.008-0.021,0.012-0.03
		c0.033-0.068,0.057-0.14,0.078-0.214c0.008-0.024,0.018-0.049,0.023-0.074c0.021-0.098,0.035-0.198,0.035-0.303V10.233
		C21.558,9.465,20.935,8.842,20.167,8.842z M15.2,76.657l-2.717-5.433h5.432L15.2,76.657z M11.624,68.442V21.559h7.15v46.884H11.624
		z M18.774,11.624v7.152h-7.15v-7.152H18.774z"/>
	<path fill="#1E1E1E" d="M44.714,18.25c-0.549-0.536-1.428-0.525-1.965,0.026c-0.537,0.55-0.525,1.431,0.025,1.966l1.713,1.668
		c0.262,0.254,0.609,0.395,0.971,0.395c0.029,0,0.061-0.001,0.092-0.003c0.393-0.026,0.756-0.218,1-0.526l4.508-5.714
		c0.477-0.603,0.373-1.478-0.23-1.953c-0.602-0.477-1.477-0.374-1.951,0.23l-3.555,4.502L44.714,18.25z"/>
	<path fill="#1E1E1E" d="M49.966,40.63c-0.768,0-1.391,0.623-1.391,1.392v1.588h-7.15v-7.151h3.574c0.77,0,1.393-0.623,1.393-1.392
		c0-0.768-0.623-1.391-1.393-1.391h-4.967c-0.768,0-1.391,0.623-1.391,1.391V45c0,0.769,0.623,1.392,1.391,1.392h9.934
		c0.77,0,1.393-0.623,1.393-1.392v-2.979C51.358,41.253,50.735,40.63,49.966,40.63z"/>
	<path fill="#1E1E1E" d="M44.714,38.116c-0.549-0.535-1.428-0.524-1.965,0.026c-0.537,0.55-0.525,1.431,0.025,1.967l1.713,1.667
		c0.262,0.254,0.609,0.396,0.971,0.396c0.029,0,0.061-0.001,0.092-0.003c0.393-0.026,0.756-0.218,1-0.527l4.508-5.714
		c0.477-0.602,0.373-1.477-0.23-1.952c-0.602-0.478-1.477-0.375-1.951,0.229l-3.555,4.502L44.714,38.116z"/>
</g>
</svg>
