<?xml version="1.0" encoding="utf-8"?>
<!-- Generator: Adobe Illustrator 16.0.0, SVG Export Plug-In . SVG Version: 6.00 Build 0)  -->
<!DOCTYPE svg PUBLIC "-//W3C//DTD SVG 1.1//EN" "http://www.w3.org/Graphics/SVG/1.1/DTD/svg11.dtd">
<svg version="1.1" id="Layer_1" xmlns="http://www.w3.org/2000/svg" xmlns:xlink="http://www.w3.org/1999/xlink" x="0px" y="0px"
	 width="90px" height="90px" viewBox="0 0 90 90" enable-background="new 0 0 90 90" xml:space="preserve">
<g>
	<path fill="#1E1E1E" d="M85.562,69.309l-19.32-14.322c-0.393-0.291-0.91-0.355-1.365-0.166c-0.451,0.188-0.77,0.6-0.84,1.084
		c-0.443,3.082-4.914,4.693-9.104,4.693c-4.062,0-8.232-0.562-11.162-4.588L16.361,14.434c-0.257-0.389-0.693-0.625-1.161-0.625
		c-6.236,0-11.312,5.068-11.324,11.303c0,0.023,0,0.048,0.001,0.072c0.002,0.037,0.005,0.076,0.009,0.112L8.85,74.939
		c0.071,0.711,0.668,1.252,1.384,1.252H15.2c0.769,0,1.392-0.623,1.392-1.391V34.694l27.252,40.878
		c0.258,0.387,0.692,0.619,1.156,0.619h39.735c0.768,0,1.391-0.623,1.391-1.391v-4.375C86.125,69.986,85.916,69.57,85.562,69.309z
		 M83.344,73.41h-37.6L16.357,29.329c-0.34-0.509-0.973-0.736-1.56-0.559c-0.587,0.177-0.988,0.717-0.988,1.33v43.31h-2.317
		L6.658,25.065c0.035-4.434,3.465-8.074,7.813-8.445l27.016,40.974c3.708,5.098,8.878,5.785,13.447,5.785
		c5.275,0,9.52-1.988,11.172-5.031l17.238,12.779V73.41z"/>
</g>
</svg>
