<?xml version="1.0" encoding="utf-8"?>
<!-- Generator: Adobe Illustrator 16.0.0, SVG Export Plug-In . SVG Version: 6.00 Build 0)  -->
<!DOCTYPE svg PUBLIC "-//W3C//DTD SVG 1.1//EN" "http://www.w3.org/Graphics/SVG/1.1/DTD/svg11.dtd">
<svg version="1.1" id="Layer_1" xmlns="http://www.w3.org/2000/svg" xmlns:xlink="http://www.w3.org/1999/xlink" x="0px" y="0px"
	 width="90px" height="90px" viewBox="0 0 90 90" enable-background="new 0 0 90 90" xml:space="preserve">
<g>
	<path fill="#1E1E1E" d="M49.107,34l11.564-7.709c0.002-0.001,0.002-0.001,0.002-0.002c0.082-0.054,0.154-0.117,0.223-0.187
		c0.02-0.021,0.037-0.045,0.055-0.067c0.045-0.051,0.086-0.104,0.123-0.161c0.018-0.029,0.033-0.06,0.049-0.091
		c0.029-0.055,0.057-0.11,0.078-0.169c0.014-0.035,0.023-0.07,0.033-0.106c0.016-0.058,0.029-0.115,0.037-0.176
		c0.004-0.021,0.012-0.04,0.014-0.062c0.002-0.021-0.002-0.041-0.002-0.062c0.002-0.025,0.008-0.05,0.008-0.076
		c0-0.034-0.008-0.066-0.01-0.1c-0.002-0.039-0.006-0.078-0.012-0.116c-0.01-0.064-0.025-0.126-0.043-0.187
		c-0.01-0.031-0.018-0.062-0.029-0.092c-0.025-0.067-0.059-0.131-0.094-0.193c-0.014-0.022-0.023-0.045-0.037-0.066
		c-0.053-0.083-0.113-0.16-0.182-0.229l-4.967-4.967c-0.262-0.261-0.615-0.407-0.984-0.407H35.066c-0.367,0-0.723,0.146-0.982,0.407
		l-4.967,4.966c-0.006,0.006-0.008,0.012-0.014,0.017c-0.062,0.065-0.119,0.136-0.168,0.211c-0.016,0.024-0.027,0.051-0.041,0.076
		c-0.033,0.06-0.064,0.119-0.09,0.184c-0.012,0.032-0.02,0.065-0.029,0.099c-0.02,0.059-0.035,0.118-0.045,0.181
		c-0.006,0.039-0.008,0.078-0.012,0.118c-0.002,0.034-0.01,0.065-0.01,0.1c0,0.026,0.006,0.051,0.008,0.076
		c0.002,0.021-0.002,0.04,0,0.061s0.01,0.04,0.012,0.061c0.01,0.062,0.023,0.122,0.039,0.182c0.01,0.033,0.02,0.066,0.031,0.099
		c0.023,0.062,0.051,0.122,0.084,0.181c0.014,0.026,0.025,0.054,0.041,0.079c0.041,0.064,0.088,0.123,0.137,0.18
		c0.016,0.016,0.025,0.033,0.041,0.049c0.07,0.072,0.148,0.138,0.232,0.194L40.893,34c-12.516,1.978-22.117,12.838-22.117,25.9
		c0,14.46,11.766,26.225,26.225,26.225c14.461,0,26.225-11.765,26.225-26.225C71.225,46.838,61.623,35.978,49.107,34z
		 M50.826,26.524h4.48l-6.721,4.48L50.826,26.524z M45,31.957l-2.715-5.433h5.432L45,31.957z M41.426,23.742v-2.185h7.15v2.185
		H41.426z M39.176,26.524l2.24,4.48l-6.721-4.48H39.176z M56.543,23.742h-5.186v-2.185h3L56.543,23.742z M35.643,21.558h3v2.185
		h-5.186L35.643,21.558z M45,83.343c-12.926,0-23.441-10.517-23.441-23.442S32.074,36.458,45,36.458S68.443,46.975,68.443,59.9
		S57.926,83.343,45,83.343z"/>
	<path fill="#1E1E1E" d="M45,39.636c-11.174,0-20.264,9.091-20.264,20.265S33.826,80.165,45,80.165S65.266,71.074,65.266,59.9
		S56.174,39.636,45,39.636z M45,77.383c-9.641,0-17.482-7.842-17.482-17.482S35.359,42.418,45,42.418S62.482,50.26,62.482,59.9
		S54.641,77.383,45,77.383z"/>
	<path fill="#1E1E1E" d="M64.865,30.5h2.779h1.195c0.77,0,1.393-0.623,1.393-1.392s-0.623-1.391-1.393-1.391l-1.195,0.001
		l-2.777-0.001l0,0c-0.768,0-1.391,0.622-1.393,1.39C63.475,29.876,64.098,30.499,64.865,30.5z"/>
	<path fill="#1E1E1E" d="M21.16,30.501L21.16,30.501l2.529-0.001l1.443,0.001c0.768,0,1.391-0.623,1.391-1.392
		s-0.623-1.391-1.391-1.391h-3.975c-0.768,0.001-1.391,0.623-1.391,1.392C19.77,29.879,20.393,30.501,21.16,30.501z"/>
	<path fill="#1E1E1E" d="M29.967,16.044c0.271,0.271,0.629,0.407,0.984,0.407s0.713-0.136,0.984-0.407
		c0.543-0.543,0.543-1.424,0-1.968l-2.811-2.808c-0.543-0.544-1.422-0.545-1.965-0.001c-0.545,0.542-0.545,1.423-0.002,1.966
		L29.967,16.044z"/>
	<path fill="#1E1E1E" d="M59.047,16.451c0.355,0,0.713-0.136,0.984-0.407l2.809-2.811c0.543-0.543,0.543-1.424,0-1.966
		c-0.545-0.544-1.424-0.543-1.967,0.001l-2.811,2.808c-0.543,0.544-0.543,1.425,0,1.968C58.336,16.315,58.691,16.451,59.047,16.451z
		"/>
	<path fill="#1E1E1E" d="M45,10.632L45,10.632c0.77-0.001,1.391-0.624,1.391-1.392V6.465V5.267c0-0.769-0.623-1.392-1.391-1.392
		c-0.77,0-1.391,0.623-1.391,1.392v3.976C43.609,10.009,44.232,10.632,45,10.632z"/>
</g>
</svg>
