<?xml version="1.0" encoding="utf-8"?>
<!-- Generator: Adobe Illustrator 16.0.0, SVG Export Plug-In . SVG Version: 6.00 Build 0)  -->
<!DOCTYPE svg PUBLIC "-//W3C//DTD SVG 1.1//EN" "http://www.w3.org/Graphics/SVG/1.1/DTD/svg11.dtd">
<svg version="1.1" id="Layer_1" xmlns="http://www.w3.org/2000/svg" xmlns:xlink="http://www.w3.org/1999/xlink" x="0px" y="0px"
	 width="90px" height="90px" viewBox="0 0 90 90" enable-background="new 0 0 90 90" xml:space="preserve">
<g>
	<path fill="#1E1E1E" d="M56.532,6.358c-4.801,0-8.822,1.891-11.527,5.372c-2.713-3.481-6.732-5.372-11.533-5.372
		c-9.832,0-17.535,7.676-17.535,17.473c0,8.55,4.645,14.838,14.609,19.789c5.73,2.848,9.168,5.59,11.074,8.952
		c-1.496,1.093-2.473,2.854-2.473,4.845c0,0.769,0.623,1.391,1.391,1.391h2.918c-0.049,5.283-2.107,7.955-4.291,10.775
		c-2.4,3.1-4.879,6.305-4.879,12.668c0,0.768,0.621,1.391,1.391,1.391c0.768,0,1.391-0.623,1.391-1.391
		c0-5.412,2.088-8.109,4.295-10.965c2.377-3.068,4.824-6.244,4.875-12.479h3.531c0.016,0.002,0.031,0.002,0.039,0
		c0.77,0,1.391-0.622,1.391-1.391c0-0.13-0.016-0.256-0.049-0.375c-0.119-1.926-1.154-3.605-2.668-4.618
		c1.92-3.292,5.33-5.999,10.975-8.804c9.965-4.949,14.607-11.237,14.607-19.789C74.063,14.034,66.362,6.358,56.532,6.358z
		 M42.245,56.026c0.52-1.083,1.629-1.833,2.908-1.833c1.281,0,2.389,0.75,2.908,1.833H42.245z M58.218,41.129
		c-6.324,3.144-10.211,6.365-12.377,10.325c-0.225-0.025-0.453-0.043-0.688-0.043c-0.33,0-0.652,0.034-0.969,0.086
		c-2.16-3.981-6.053-7.215-12.4-10.368c-9.035-4.488-13.064-9.823-13.064-17.298c0-8.238,6.48-14.689,14.752-14.689
		c4.6,0,8.168,1.997,10.324,5.776c0.248,0.434,0.709,0.702,1.209,0.702c0.5-0.001,0.959-0.269,1.209-0.703
		c2.15-3.778,5.719-5.775,10.318-5.775c8.271,0,14.75,6.451,14.75,14.689C71.282,31.308,67.253,36.643,58.218,41.129z"/>
</g>
</svg>
