<?xml version="1.0" encoding="utf-8"?>
<!-- Generator: Adobe Illustrator 16.0.0, SVG Export Plug-In . SVG Version: 6.00 Build 0)  -->
<!DOCTYPE svg PUBLIC "-//W3C//DTD SVG 1.1//EN" "http://www.w3.org/Graphics/SVG/1.1/DTD/svg11.dtd">
<svg version="1.1" id="Layer_1" xmlns="http://www.w3.org/2000/svg" xmlns:xlink="http://www.w3.org/1999/xlink" x="0px" y="0px"
	 width="90px" height="90px" viewBox="0 0 90 90" enable-background="new 0 0 90 90" xml:space="preserve">
<g>
	<path fill="#1E1E1E" d="M74.801,21.259c-3.457,0-6.352-1.157-9.418-2.383c-3.174-1.27-6.455-2.584-10.449-2.584
		c-5.346,0-8.408,2.326-9.934,4.018c-1.525-1.691-4.586-4.018-9.934-4.018c-3.994,0-7.275,1.314-10.449,2.584
		c-3.064,1.226-5.959,2.383-9.416,2.383c-0.77,0-1.393,0.623-1.393,1.392v39.733c0,0.769,0.623,1.391,1.393,1.391
		c3.994,0,7.275-1.312,10.449-2.583c2.645-1.058,5.164-2.061,8.025-2.317v2.175c-3.379,0.258-6.262,1.408-9.059,2.527
		c-3.064,1.226-5.959,2.384-9.416,2.384c-0.77,0-1.393,0.622-1.393,1.391c0,0.768,0.623,1.391,1.393,1.391
		c3.994,0,7.275-1.312,10.449-2.583c2.645-1.058,5.164-2.061,8.025-2.317v8.477c0,0.768,0.623,1.391,1.391,1.391
		c0.77,0,1.393-0.623,1.393-1.391v-8.469c5.338,0.525,7.211,3.957,7.301,4.133c0.006,0.008,0.012,0.015,0.018,0.023
		c0.053,0.098,0.115,0.189,0.191,0.273c0.021,0.025,0.047,0.045,0.07,0.068c0.059,0.056,0.123,0.107,0.191,0.153
		c0.031,0.021,0.062,0.042,0.098,0.062c0.018,0.01,0.033,0.023,0.051,0.033c0.051,0.025,0.105,0.037,0.156,0.057
		c0.041,0.014,0.08,0.032,0.121,0.043c0.113,0.029,0.229,0.047,0.342,0.047c0.002,0,0.002,0,0.002,0c0.002,0,0.002,0,0.002,0
		c0.115,0,0.23-0.018,0.346-0.047c0.039-0.011,0.076-0.028,0.113-0.042c0.055-0.019,0.107-0.032,0.16-0.058
		c0.02-0.01,0.035-0.024,0.055-0.035c0.033-0.019,0.064-0.039,0.096-0.061c0.072-0.049,0.139-0.102,0.199-0.162
		c0.02-0.02,0.043-0.037,0.062-0.06c0.078-0.087,0.143-0.182,0.195-0.283c0.004-0.009,0.012-0.014,0.016-0.022
		c0.021-0.042,2.174-4.197,8.689-4.197c3.457,0,6.352,1.158,9.418,2.384c3.174,1.271,6.455,2.583,10.449,2.583
		c0.768,0,1.391-0.623,1.391-1.391c0-0.769-0.623-1.391-1.391-1.391c-3.457,0-6.352-1.158-9.418-2.384
		c-3.174-1.271-6.455-2.583-10.449-2.583c-5.346,0-8.408,2.324-9.934,4.017c-1.387-1.539-4.047-3.598-8.541-3.959v-2.169
		c5.338,0.525,7.211,3.957,7.301,4.133c0.006,0.008,0.012,0.014,0.018,0.023c0.053,0.098,0.115,0.189,0.191,0.273
		c0.021,0.025,0.047,0.045,0.07,0.068c0.059,0.056,0.121,0.107,0.191,0.153c0.031,0.021,0.064,0.043,0.098,0.062
		c0.018,0.01,0.033,0.023,0.051,0.033c0.051,0.025,0.105,0.037,0.156,0.057c0.041,0.014,0.078,0.032,0.121,0.043
		c0.113,0.029,0.229,0.047,0.342,0.047c0.002,0,0.002,0,0.002,0c0.002,0,0.002,0,0.002,0c0.115,0,0.232-0.018,0.346-0.048
		c0.039-0.01,0.074-0.027,0.113-0.04c0.053-0.02,0.107-0.033,0.16-0.059c0.02-0.01,0.035-0.024,0.055-0.035
		c0.033-0.019,0.064-0.039,0.096-0.061c0.072-0.048,0.139-0.102,0.199-0.161c0.02-0.021,0.043-0.038,0.062-0.061
		c0.078-0.087,0.143-0.181,0.195-0.282c0.004-0.008,0.012-0.014,0.016-0.022c0.021-0.043,2.174-4.198,8.689-4.198
		c3.457,0,6.352,1.158,9.418,2.384c3.174,1.271,6.455,2.583,10.449,2.583c0.768,0,1.391-0.622,1.391-1.391V22.65
		C76.191,21.882,75.568,21.259,74.801,21.259z M43.76,23.28c0.006,0.012,0.016,0.021,0.021,0.033c0.016,0.031,0.037,0.06,0.057,0.09
		c0.031,0.048,0.062,0.096,0.098,0.139c0.016,0.02,0.035,0.035,0.051,0.053c0.047,0.051,0.094,0.099,0.146,0.141
		c0.014,0.011,0.029,0.02,0.045,0.03c0.061,0.045,0.123,0.086,0.189,0.12c0.004,0.002,0.008,0.006,0.012,0.008
		c0.014,0.007,0.029,0.01,0.043,0.016c0.062,0.029,0.127,0.056,0.195,0.074c0.031,0.01,0.064,0.016,0.096,0.023
		c0.053,0.011,0.105,0.021,0.16,0.025c0.043,0.004,0.086,0.004,0.131,0.004c0.043,0,0.084,0,0.127-0.004
		c0.055-0.005,0.107-0.016,0.162-0.027c0.031-0.006,0.062-0.012,0.094-0.021c0.068-0.02,0.133-0.046,0.197-0.076
		c0.012-0.006,0.025-0.008,0.037-0.014c0.004-0.002,0.008-0.006,0.012-0.008c0.066-0.033,0.127-0.074,0.188-0.118
		c0.016-0.012,0.033-0.022,0.051-0.035c0.047-0.038,0.09-0.083,0.133-0.128c0.021-0.023,0.045-0.045,0.064-0.068
		c0.031-0.037,0.057-0.078,0.084-0.119c0.025-0.037,0.051-0.074,0.072-0.115c0.006-0.011,0.014-0.02,0.02-0.029
		c0.021-0.043,2.174-4.198,8.689-4.198c3.457,0,6.352,1.157,9.418,2.384c2.797,1.119,5.678,2.271,9.059,2.529v2.172
		c-2.861-0.256-5.381-1.259-8.027-2.316c-3.174-1.271-6.455-2.584-10.449-2.584c-5.346,0-8.408,2.325-9.934,4.018
		c-1.387-1.539-4.047-3.598-8.541-3.959v-2.17C41.797,19.673,43.67,23.105,43.76,23.28z M25.65,21.458
		c2.645-1.058,5.164-2.061,8.025-2.317v2.174c-3.379,0.259-6.262,1.409-9.059,2.528c-2.645,1.058-5.164,2.061-8.025,2.316v-2.172
		C19.971,23.729,22.852,22.577,25.65,21.458z M24.617,58.609c-2.645,1.058-5.164,2.061-8.025,2.317V28.952
		c3.379-0.258,6.262-1.408,9.059-2.527c2.645-1.059,5.164-2.061,8.025-2.317v31.975C30.297,56.34,27.414,57.49,24.617,58.609z
		 M54.934,56.026c-5.346,0-8.408,2.324-9.934,4.017c-1.387-1.539-4.047-3.598-8.541-3.959v-31.97
		c4.586,0.451,6.613,3.043,7.15,3.879v1.61c0,0.769,0.623,1.392,1.391,1.392c0.77,0,1.391-0.623,1.391-1.392v-1.61
		c0.572-0.891,2.945-3.952,8.543-3.952c3.457,0,6.352,1.157,9.418,2.384c2.797,1.119,5.68,2.27,9.059,2.527v31.975
		c-2.861-0.257-5.381-1.26-8.027-2.317C62.209,57.339,58.928,56.026,54.934,56.026z"/>
	<path fill="#1E1E1E" d="M45,50.065c-0.768,0-1.391,0.623-1.391,1.392v1.987c0,0.768,0.623,1.391,1.391,1.391
		c0.77,0,1.391-0.623,1.391-1.391v-1.987C46.391,50.688,45.77,50.065,45,50.065z"/>
	<path fill="#1E1E1E" d="M45,42.119c-0.768,0-1.391,0.623-1.391,1.392v1.986c0,0.768,0.623,1.391,1.391,1.391
		c0.77,0,1.391-0.623,1.391-1.391v-1.986C46.391,42.742,45.77,42.119,45,42.119z"/>
	<path fill="#1E1E1E" d="M45,34.173c-0.768,0-1.391,0.623-1.391,1.391v1.986c0,0.769,0.623,1.392,1.391,1.392
		c0.77,0,1.391-0.623,1.391-1.392v-1.986C46.391,34.796,45.77,34.173,45,34.173z"/>
</g>
</svg>
