<?xml version="1.0" encoding="utf-8"?>
<!-- Generator: Adobe Illustrator 16.0.0, SVG Export Plug-In . SVG Version: 6.00 Build 0)  -->
<!DOCTYPE svg PUBLIC "-//W3C//DTD SVG 1.1//EN" "http://www.w3.org/Graphics/SVG/1.1/DTD/svg11.dtd">
<svg version="1.1" id="Layer_1" xmlns="http://www.w3.org/2000/svg" xmlns:xlink="http://www.w3.org/1999/xlink" x="0px" y="0px"
	 width="90px" height="90px" viewBox="0 0 90 90" enable-background="new 0 0 90 90" xml:space="preserve">
<g>
	<path fill="#1E1E1E" d="M70.59,16.699c-0.533-0.531-1.389-0.543-1.938-0.029l-12.42,11.69c-2.32-1.382-4.969-2.136-7.741-2.136
		c-3.637,0-7.159,1.301-9.916,3.662c-0.39,0.334-0.563,0.856-0.452,1.358c0.701,3.154-0.236,6.395-2.505,8.667
		c-1.769,1.767-4.12,2.74-6.62,2.74c-2.499,0-4.851-0.973-6.62-2.74c-0.544-0.542-1.423-0.541-1.966,0.001l-3.012,3.009
		c-3.955,3.955-6.135,9.214-6.135,14.809c0,5.113,1.839,9.934,5.172,13.748l-9.971,9.777c-0.548,0.538-0.557,1.418-0.02,1.968
		c0.273,0.277,0.633,0.417,0.994,0.417c0.352,0,0.703-0.133,0.974-0.398l9.987-9.794c3.822,3.366,8.666,5.225,13.807,5.225l0,0
		c5.594,0,10.854-2.178,14.809-6.134l3.009-3.011c0.543-0.543,0.499-1.47-0.043-2.014c-3.65-3.649-3.65-9.589-0.002-13.238
		c2.266-2.266,5.602-3.213,8.725-2.492c0.508,0.12,1.033-0.057,1.371-0.452c4.271-5.01,4.707-12.15,1.496-17.618l11.697-12.427
		c0.514-0.548,0.502-1.406-0.029-1.938L70.59,16.699z M58.457,48.907c-3.818-0.591-7.713,0.675-10.441,3.403
		c-4.412,4.414-4.71,11.408-0.886,16.184l-2.079,2.079c-3.43,3.431-7.99,5.319-12.842,5.319l0,0c-4.853,0-9.412-1.89-12.842-5.32
		c-3.43-3.43-5.32-7.99-5.32-12.841c0-4.852,1.891-9.412,5.319-12.841l2.087-2.083c2.138,1.703,4.771,2.626,7.545,2.626
		c3.242,0,6.291-1.262,8.587-3.554c2.738-2.742,3.981-6.565,3.413-10.372c2.15-1.618,4.783-2.501,7.493-2.501
		c1.989,0,3.901,0.471,5.624,1.347L24.821,57.928c-0.273,0.258-0.432,0.616-0.436,0.991c-0.006,0.377,0.141,0.738,0.406,1.006
		l5.226,5.227c0.261,0.261,0.614,0.407,0.983,0.407c0.007,0,0.014,0,0.021-0.001c0.375-0.005,0.733-0.163,0.991-0.437l27.552-29.272
		C61.641,39.983,61.314,45.083,58.457,48.907z M30.97,62.17l-3.199-3.199L69.576,19.62l0.744,0.744L30.97,62.17z"/>
	<path fill="#1E1E1E" d="M83.949,9.448c0-0.369-0.146-0.723-0.408-0.983l-1.699-1.698c-0.541-0.543-1.424-0.543-1.965,0
		c-2.699,2.698-4.613,2.989-5.311,2.989c-0.277,0-0.418-0.04-0.398-0.03c-0.348-0.133-0.736-0.121-1.076,0.035
		c-0.342,0.156-0.605,0.445-0.73,0.799l-1.414,3.987c-0.18,0.506-0.053,1.069,0.326,1.449l3.039,3.037
		c0.266,0.265,0.621,0.408,0.984,0.408c0.154,0,0.312-0.026,0.463-0.081l3.988-1.411c0.697-0.247,1.062-1.055,0.85-1.765
		c-0.006-0.021-0.604-2.203,2.945-5.751C83.803,10.171,83.949,9.817,83.949,9.448z M77.771,15.698l-2.113,0.747l-1.795-1.796
		l0.746-2.112c1.225-0.01,3.008-0.414,5.188-2.025C78.156,12.735,77.779,14.532,77.771,15.698z"/>
	<path fill="#1E1E1E" d="M23.575,50.849c0.543-0.543,0.542-1.424,0-1.968c-0.543-0.543-1.424-0.543-1.967,0
		c-1.708,1.709-1.962,3.278-2.166,4.54c-0.182,1.128-0.312,1.942-1.384,3.013c-0.544,0.543-0.544,1.424,0,1.967
		c0.271,0.271,0.628,0.407,0.983,0.407s0.712-0.136,0.984-0.407c1.705-1.706,1.959-3.275,2.162-4.536
		C22.371,52.736,22.502,51.921,23.575,50.849z"/>
	<path fill="#1E1E1E" d="M34.907,72.29c0.355,0,0.712-0.136,0.984-0.408c1.069-1.069,1.885-1.201,3.012-1.384
		c1.262-0.204,2.832-0.457,4.539-2.164c0.543-0.543,0.543-1.424,0-1.968c-0.543-0.543-1.424-0.543-1.968,0
		c-1.071,1.072-1.887,1.204-3.015,1.387c-1.26,0.203-2.83,0.457-4.536,2.162c-0.542,0.543-0.544,1.424,0,1.967
		C34.195,72.154,34.551,72.29,34.907,72.29z"/>
	<path fill="#1E1E1E" d="M23.575,63.714c-0.543-0.546-1.424-0.545-1.967-0.001c-0.543,0.543-0.544,1.423,0,1.966l2.651,2.654
		c0.272,0.272,0.628,0.408,0.983,0.408c0.356,0,0.711-0.136,0.983-0.407c0.543-0.543,0.544-1.423,0.001-1.967L23.575,63.714z"/>
</g>
</svg>
