<?xml version="1.0" encoding="utf-8"?>
<!-- Generator: Adobe Illustrator 16.0.0, SVG Export Plug-In . SVG Version: 6.00 Build 0)  -->
<!DOCTYPE svg PUBLIC "-//W3C//DTD SVG 1.1//EN" "http://www.w3.org/Graphics/SVG/1.1/DTD/svg11.dtd">
<svg version="1.1" id="Layer_1" xmlns="http://www.w3.org/2000/svg" xmlns:xlink="http://www.w3.org/1999/xlink" x="0px" y="0px"
	 width="90px" height="90px" viewBox="0 0 90 90" enable-background="new 0 0 90 90" xml:space="preserve">
<g>
	<path fill="#1E1E1E" d="M41.47,59.71c0-3.905-1.418-6.133-2.668-8.097c-1.199-1.885-2.236-3.513-2.236-6.613
		c0-6.165-5.02-11.181-11.188-11.181c-6.162,0-11.174,5.016-11.174,11.181c0,3.101-1.037,4.729-2.236,6.614
		c-1.25,1.965-2.668,4.192-2.668,8.098c0,1.481,0.855,2.755,2.092,3.391C10.097,64.924,9.3,67.119,9.3,69.519v9.809
		c0,0.758,0.615,1.373,1.373,1.373s1.373-0.615,1.373-1.373v-9.809c0-2.832,1.424-5.316,3.574-6.842
		c0.66,0.535,1.494,0.859,2.408,0.859c2.109,0,3.826-1.716,3.826-3.824c0-0.759-0.615-1.374-1.373-1.374
		c-0.76,0-1.375,0.615-1.375,1.374c0,0.594-0.482,1.078-1.078,1.078s-1.078-0.484-1.078-1.078c0-0.759-0.615-1.374-1.373-1.374
		c-0.76,0-1.373,0.615-1.373,1.374c0,0.594-0.484,1.078-1.08,1.078s-1.078-0.484-1.078-1.078c0-3.105,1.037-4.736,2.238-6.623
		c1.248-1.964,2.666-4.189,2.666-8.089c0-4.651,3.781-8.435,8.428-8.435c4.656,0,8.441,3.783,8.441,8.435
		c0,3.899,1.414,6.125,2.666,8.087c1.201,1.889,2.236,3.519,2.236,6.625c0,0.594-0.482,1.078-1.078,1.078s-1.078-0.484-1.078-1.078
		c0-0.759-0.615-1.374-1.373-1.374c-0.76,0-1.373,0.615-1.373,1.374c0,0.594-0.484,1.078-1.08,1.078s-1.078-0.484-1.078-1.078
		c0-0.759-0.615-1.374-1.373-1.374s-1.373,0.615-1.373,1.374c0,2.108,1.717,3.824,3.824,3.824c0.914,0,1.75-0.324,2.408-0.859
		c2.152,1.525,3.574,4.01,3.574,6.842v9.809c0,0.758,0.615,1.373,1.375,1.373c0.758,0,1.373-0.615,1.373-1.373v-9.809
		c0-2.399-0.797-4.596-2.092-6.416C40.612,62.466,41.47,61.192,41.47,59.71z"/>
	<path fill="#1E1E1E" d="M64.614,28.915h-4.9c-0.002,0-0.002,0-0.002,0c-0.76,0-1.375,0.615-1.375,1.373s0.615,1.373,1.373,1.374
		h3.668h1.236c0.76,0,1.375-0.615,1.375-1.374C65.989,29.53,65.374,28.915,64.614,28.915z"/>
	<path fill="#1E1E1E" d="M25.384,31.662c0,0,0,0,0.002,0l3.424-0.001l1.479,0.001c0.758,0,1.373-0.615,1.373-1.374
		c0-0.758-0.615-1.373-1.373-1.373h-4.906c-0.758,0.001-1.371,0.617-1.371,1.375C24.013,31.048,24.626,31.662,25.384,31.662z"/>
	<path fill="#1E1E1E" d="M44.999,16.95h0.002c0.76-0.002,1.373-0.617,1.373-1.375v-4.902c0-0.758-0.615-1.373-1.375-1.373
		c-0.758,0-1.373,0.615-1.373,1.373v4.906C43.628,16.337,44.243,16.95,44.999,16.95z"/>
	<path fill="#1E1E1E" d="M32.786,20.017c0.268,0.268,0.619,0.4,0.969,0.4c0.354,0,0.705-0.135,0.973-0.403
		c0.535-0.538,0.533-1.406-0.002-1.941l-3.467-3.466c-0.535-0.537-1.406-0.534-1.941,0c-0.537,0.537-0.537,1.406,0,1.941
		L32.786,20.017z"/>
	<path fill="#1E1E1E" d="M56.243,20.417c0.352,0,0.701-0.133,0.971-0.4l3.469-3.469c0.535-0.535,0.535-1.404,0-1.941
		c-0.535-0.535-1.404-0.538-1.943,0l-3.465,3.466c-0.535,0.535-0.537,1.403-0.004,1.941C55.54,20.282,55.892,20.417,56.243,20.417z"
		/>
	<path fill="#1E1E1E" d="M53.224,27.401c0-3.002-2.357-5.352-5.365-5.352c-1.1,0-2.074,0.316-2.854,0.912
		c-0.781-0.596-1.752-0.912-2.85-0.912c-3.01,0-5.365,2.35-5.365,5.352c0,2.516,1.369,4.418,4.184,5.812
		c1.541,0.769,2.275,1.449,2.529,2.352c0.168,0.592,0.707,1,1.322,1h0.359c0.611,0,1.152-0.408,1.32-0.998
		c0.256-0.902,0.99-1.585,2.531-2.354C51.854,31.819,53.224,29.917,53.224,27.401z M45.005,32.743
		c-0.791-0.89-1.82-1.496-2.809-1.988c-1.865-0.924-2.66-1.928-2.66-3.354c0-1.485,1.127-2.604,2.619-2.604
		c0.766,0,1.311,0.298,1.66,0.911c0.244,0.427,0.699,0.691,1.191,0.691h0.002c0.494-0.002,0.949-0.267,1.191-0.695
		c0.348-0.61,0.889-0.907,1.658-0.907c1.492,0,2.617,1.119,2.617,2.604c0,1.426-0.795,2.43-2.66,3.354
		C46.827,31.247,45.796,31.854,45.005,32.743z"/>
	<path fill="#1E1E1E" d="M28.915,50.06c0,2.625-1.584,4.76-3.531,4.76c-1.912,0-3.529-2.18-3.529-4.76
		c0-0.76-0.615-1.374-1.373-1.374c-0.76,0-1.375,0.614-1.375,1.374c0,4.139,2.816,7.506,6.277,7.506
		c3.463,0,6.277-3.367,6.277-7.506c0-0.152-0.039-0.291-0.086-0.427c0.082,0.015,0.162,0.047,0.244,0.047
		c0.35,0,0.703-0.134,0.971-0.402c0.537-0.536,0.537-1.405,0-1.942c-2.346-2.347-3.949-2.696-5.365-3.004
		c-1.197-0.262-2.232-0.487-4.01-2.264c-0.395-0.395-0.992-0.51-1.496-0.297c-0.514,0.213-0.848,0.713-0.848,1.268v0.972
		c0,0.595-0.484,1.078-1.08,1.078c-0.758,0-1.373,0.615-1.373,1.374c0,0.758,0.615,1.373,1.373,1.373
		c1.518,0,2.832-0.889,3.451-2.174c1.346,0.904,2.418,1.139,3.398,1.352c1.051,0.23,1.979,0.434,3.393,1.685
		C29.501,48.728,28.915,49.32,28.915,50.06z"/>
	<path fill="#1E1E1E" d="M69.519,58.338c-0.758,0-1.373,0.615-1.373,1.374V61.3l-2.559-2.56c-0.537-0.536-1.406-0.536-1.943,0
		l-2.559,2.56v-1.588c0-0.759-0.615-1.374-1.373-1.374c-6.164,0-11.182,5.017-11.182,11.181v9.809c0,0.758,0.615,1.373,1.373,1.373
		s1.373-0.615,1.373-1.373v-9.809c0-4.184,3.062-7.664,7.061-8.322v3.419c0,0.556,0.336,1.057,0.85,1.269
		c0.504,0.213,1.102,0.096,1.496-0.297l3.932-3.934l3.934,3.934c0.393,0.391,0.986,0.51,1.496,0.297
		c0.514-0.212,0.848-0.713,0.848-1.269v-3.419c4,0.658,7.061,4.139,7.061,8.322v9.809c0,0.758,0.615,1.373,1.375,1.373
		c0.758,0,1.373-0.615,1.373-1.373v-9.809C80.7,63.354,75.683,58.338,69.519,58.338z"/>
	<path fill="#1E1E1E" d="M56.376,42.058v4.162c0,5.492,3.697,9.961,8.238,9.961c4.543,0,8.24-4.469,8.24-9.961v-4.162
		c0-4.543-3.697-8.238-8.24-8.238C60.073,33.819,56.376,37.515,56.376,42.058z M70.106,46.22c0,3.979-2.463,7.215-5.492,7.215
		c-3.027,0-5.49-3.236-5.49-7.215v-1.953c0.18,0.087,0.375,0.145,0.588,0.145c3.43,0,4.66-0.932,5.744-1.752
		c0.879-0.664,1.574-1.189,4.062-1.189c0.184,0,0.359-0.039,0.518-0.104c0.031,0.229,0.07,0.455,0.07,0.692V46.22z M68.964,38.741
		c-2.973,0.1-4.146,0.957-5.162,1.729c-0.885,0.668-1.582,1.194-4.09,1.194c-0.201,0-0.389,0.048-0.562,0.126
		c0.145-2.902,2.529-5.225,5.465-5.225C66.394,36.565,67.96,37.429,68.964,38.741z"/>
	<path fill="#1E1E1E" d="M29.317,63.644l-3.934,3.934l-3.932-3.934c-0.537-0.537-1.406-0.537-1.943,0
		c-0.535,0.536-0.535,1.406,0,1.941l4.904,4.904c0.268,0.268,0.621,0.402,0.971,0.402c0.352,0,0.703-0.135,0.973-0.402l4.902-4.904
		c0.537-0.535,0.537-1.405,0-1.941C30.724,63.106,29.853,63.106,29.317,63.644z"/>
</g>
</svg>
