<?xml version="1.0" encoding="utf-8"?>
<!-- Generator: Adobe Illustrator 16.0.0, SVG Export Plug-In . SVG Version: 6.00 Build 0)  -->
<!DOCTYPE svg PUBLIC "-//W3C//DTD SVG 1.1//EN" "http://www.w3.org/Graphics/SVG/1.1/DTD/svg11.dtd">
<svg version="1.1" id="Layer_1" xmlns="http://www.w3.org/2000/svg" xmlns:xlink="http://www.w3.org/1999/xlink" x="0px" y="0px"
	 width="90px" height="90px" viewBox="0 0 90 90" enable-background="new 0 0 90 90" xml:space="preserve">
<g>
	<path fill="#1E1E1E" d="M78.414,48.713c0.027-0.027,0.059-0.051,0.086-0.08c1.727-1.744,2.67-4.059,2.658-6.506V22.954
		c-0.025-5.043-4.148-9.145-9.232-9.145H17.986c-2.455,0.013-4.758,0.979-6.484,2.725c-1.729,1.746-2.672,4.059-2.66,6.508v19.132
		c0.014,2.555,1.082,4.866,2.791,6.526c-4.408,0.695-7.781,4.521-7.758,9.109v2.166c0,0.77,0.623,1.393,1.391,1.393h7.98
		L8.914,74.361c-0.242,0.729,0.15,1.516,0.879,1.758c0.146,0.049,0.295,0.072,0.439,0.072c0.582,0,1.127-0.369,1.32-0.951
		l4.256-12.766l3.375,3.377c0.543,0.543,1.424,0.543,1.967,0s0.543-1.424,0-1.969l-2.518-2.516h52.734l-2.518,2.516
		c-0.543,0.545-0.543,1.426,0,1.969s1.424,0.543,1.967,0l3.375-3.377l4.256,12.766c0.195,0.582,0.738,0.951,1.32,0.951
		c0.145,0,0.293-0.023,0.439-0.072c0.729-0.242,1.121-1.029,0.879-1.758l-4.332-12.994h7.98c0.768,0,1.391-0.623,1.391-1.393v-2.213
		C86.102,53.215,82.771,49.439,78.414,48.713z M11.625,23.034c-0.01-1.713,0.648-3.326,1.854-4.543
		c1.203-1.217,2.811-1.893,4.516-1.9h53.975c3.516,0,6.391,2.86,6.408,6.37v19.172c0.008,1.713-0.65,3.328-1.855,4.545
		c-1.201,1.215-2.807,1.891-4.518,1.898l-53.971-0.039c-3.516-0.002-6.391-2.863-6.408-6.372V23.034z M83.342,58.584h-8.123
		c-0.035-0.01-0.064-0.029-0.1-0.037c-0.25-0.057-0.506-0.039-0.744,0.037H15.631c-0.24-0.078-0.498-0.098-0.75-0.037
		c-0.035,0.008-0.064,0.027-0.1,0.037H6.658v-0.781c-0.02-3.537,2.842-6.428,6.369-6.445h12.105c0.877,0,1.59,0.715,1.59,1.59
		c0,0.768,0.623,1.391,1.391,1.391s1.391-0.623,1.391-1.391c0-0.875,0.713-1.59,1.59-1.59h27.812c0.877,0,1.59,0.715,1.59,1.59
		c0,0.768,0.623,1.391,1.391,1.391s1.391-0.623,1.391-1.391c0-0.875,0.713-1.59,1.59-1.59h7.139c0.002,0,0.004,0,0.008,0h4.918
		c3.518,0,6.395,2.879,6.41,6.41V58.584z"/>
	<path fill="#1E1E1E" d="M25.133,34.471c0.877,0,1.59,0.713,1.59,1.589c0,0.769,0.623,1.391,1.391,1.391s1.391-0.622,1.391-1.391
		c0-0.876,0.713-1.589,1.59-1.589c0.768,0,1.391-0.623,1.391-1.391c0-0.769-0.623-1.392-1.391-1.392c-0.877,0-1.59-0.713-1.59-1.589
		c0-0.768-0.623-1.391-1.391-1.391s-1.391,0.623-1.391,1.391c0,0.876-0.713,1.589-1.59,1.589c-0.768,0-1.391,0.623-1.391,1.392
		C23.742,33.848,24.365,34.471,25.133,34.471z"/>
	<path fill="#1E1E1E" d="M58.906,34.471c0.877,0,1.59,0.713,1.59,1.589c0,0.769,0.623,1.391,1.391,1.391s1.391-0.622,1.391-1.391
		c0-0.876,0.713-1.589,1.59-1.589c0.768,0,1.391-0.623,1.391-1.391c0-0.769-0.623-1.392-1.391-1.392c-0.877,0-1.59-0.713-1.59-1.589
		c0-0.768-0.623-1.391-1.391-1.391s-1.391,0.623-1.391,1.391c0,0.876-0.713,1.589-1.59,1.589c-0.768,0-1.391,0.623-1.391,1.392
		C57.516,33.848,58.139,34.471,58.906,34.471z"/>
</g>
</svg>
