<?xml version="1.0" encoding="utf-8"?>
<!-- Generator: Adobe Illustrator 16.0.0, SVG Export Plug-In . SVG Version: 6.00 Build 0)  -->
<!DOCTYPE svg PUBLIC "-//W3C//DTD SVG 1.1//EN" "http://www.w3.org/Graphics/SVG/1.1/DTD/svg11.dtd">
<svg version="1.1" id="Layer_1" xmlns="http://www.w3.org/2000/svg" xmlns:xlink="http://www.w3.org/1999/xlink" x="0px" y="0px"
	 width="90px" height="90px" viewBox="0 0 90 90" enable-background="new 0 0 90 90" xml:space="preserve">
<g>
	<path fill="#1E1E1E" d="M67.35,47.396h-9.933c-0.769,0-1.392,0.622-1.392,1.391v16.081c0,3.026,2.127,5.561,4.963,6.198v8.706
		c0,1.97-1.602,3.571-3.571,3.571c-0.769,0-1.392,0.623-1.392,1.391c0,0.769,0.623,1.392,1.392,1.392h9.933
		c0.77,0,1.392-0.623,1.392-1.392c0-0.768-0.622-1.391-1.392-1.391c-1.969,0-3.57-1.602-3.57-3.571c0-0.053-0.003-0.104-0.009-0.156
		v-8.548c2.84-0.635,4.971-3.171,4.971-6.2V48.786C68.741,48.018,68.119,47.396,67.35,47.396z M65.959,50.178v3.364h-7.15v-3.364
		H65.959z M62.384,68.442c-1.972,0-3.575-1.604-3.575-3.575v-8.543h7.15v8.543C65.959,66.839,64.355,68.442,62.384,68.442z"/>
	<path fill="#1E1E1E" d="M40.6,30.231v-8.681c0.705-0.064,1.26-0.66,1.26-1.384V15.2c0-0.769-0.623-1.392-1.392-1.392h-1.526V5.267
		c0-0.769-0.623-1.392-1.392-1.392h-4.966c-0.77,0-1.392,0.623-1.392,1.392v8.542h-1.526c-0.768,0-1.391,0.623-1.391,1.392v4.967
		c0,0.725,0.554,1.319,1.261,1.384v8.681c0,1.827-1.852,4.847-3.644,7.766c-2.278,3.713-4.634,7.55-4.634,10.879
		c0,9.41,1.556,35.677,1.571,35.94c0.043,0.734,0.651,1.309,1.388,1.309h21.699c0.736,0,1.345-0.574,1.388-1.309
		c0.016-0.264,1.57-26.53,1.57-35.94c0-3.328-2.355-7.166-4.633-10.878C42.451,35.078,40.6,32.059,40.6,30.231z M33.975,6.657h2.185
		v7.151h-2.185V6.657z M44.604,83.343H25.529c-0.313-5.44-1.488-26.344-1.488-34.467c0-2.543,2.242-6.198,4.222-9.424
		c2.085-3.397,4.056-6.607,4.056-9.221V20.167c0-0.725-0.554-1.319-1.261-1.385v-2.191h8.02v2.191
		c-0.706,0.065-1.261,0.661-1.261,1.385v10.064c0,2.613,1.97,5.823,4.055,9.221c1.979,3.226,4.221,6.881,4.221,9.424
		C46.092,56.999,44.918,77.902,44.604,83.343z"/>
	<path fill="#1E1E1E" d="M41.991,42.924c0-0.768-0.623-1.391-1.392-1.391c-1.988,0-3.863,0.48-5.533,1.312
		c-1.67-0.832-3.545-1.312-5.533-1.312c-0.77,0-1.392,0.623-1.392,1.391c0,0.769,0.622,1.392,1.392,1.392
		c0.963,0,1.892,0.146,2.77,0.409c-2.547,2.282-4.161,5.586-4.161,9.267c0,0.769,0.622,1.392,1.392,1.392
		c0.768,0,1.391-0.623,1.391-1.392c0-3.277,1.642-6.175,4.143-7.926c2.501,1.751,4.144,4.648,4.144,7.926
		c0,0.769,0.622,1.392,1.392,1.392c0.768,0,1.391-0.623,1.391-1.392c0-3.681-1.615-6.984-4.162-9.267
		c0.879-0.264,1.807-0.409,2.77-0.409C41.368,44.315,41.991,43.692,41.991,42.924z"/>
</g>
</svg>
