<?xml version="1.0" encoding="utf-8"?>
<!-- Generator: Adobe Illustrator 16.0.0, SVG Export Plug-In . SVG Version: 6.00 Build 0)  -->
<!DOCTYPE svg PUBLIC "-//W3C//DTD SVG 1.1//EN" "http://www.w3.org/Graphics/SVG/1.1/DTD/svg11.dtd">
<svg version="1.1" id="Layer_1" xmlns="http://www.w3.org/2000/svg" xmlns:xlink="http://www.w3.org/1999/xlink" x="0px" y="0px"
	 width="90px" height="90px" viewBox="0 0 90 90" enable-background="new 0 0 90 90" xml:space="preserve">
<g>
	<path fill="#1E1E1E" d="M14.912,20.965c-0.006,0.041-0.018,0.08-0.02,0.121l-0.602,12.477c-0.027,0.564,0.289,1.089,0.801,1.328
		c0.189,0.088,0.389,0.131,0.588,0.131c0.344,0,0.682-0.127,0.943-0.37l9.039-8.349c2.299,0.844,4.641,1.529,7.014,2.061
		l2.896,11.549c0.139,0.548,0.592,0.959,1.15,1.039c0.066,0.01,0.133,0.014,0.199,0.014c0.488,0,0.945-0.256,1.197-0.686
		l6.207-10.566c0.189,0.002,0.377,0.014,0.564,0.014c1.797,0,3.592-0.087,5.381-0.26c0.037,0.139,0.08,0.275,0.162,0.402
		l6.883,10.422c0.26,0.395,0.697,0.625,1.16,0.625c0.088,0,0.18-0.009,0.27-0.027c0.553-0.108,0.986-0.543,1.094-1.098l2.4-12.256
		c0.039-0.199,0.031-0.395-0.012-0.58c1.92-0.627,3.814-1.354,5.67-2.196l9.072,7.405c0.254,0.207,0.564,0.313,0.879,0.313
		c0.227,0,0.455-0.056,0.664-0.169c0.496-0.27,0.779-0.812,0.719-1.373L77.91,18.878c2.189-1.619,4.287-3.415,6.27-5.397
		c0.543-0.543,0.543-1.424,0-1.967s-1.424-0.543-1.967,0c-20.578,20.58-54.064,20.576-74.645,0c-0.543-0.543-1.424-0.543-1.967,0
		s-0.543,1.424,0,1.967C8.484,16.364,11.613,18.85,14.912,20.965z M57.764,35.923l-4.51-6.831c2.051-0.311,4.086-0.742,6.1-1.282
		L57.764,35.923z M76.096,27.86l-5.438-4.438c1.584-0.828,3.137-1.739,4.65-2.731L76.096,27.86z M17.232,30.303l0.373-7.721
		c1.695,0.955,3.43,1.812,5.197,2.576L17.232,30.303z M37.443,35.941l-1.754-6.989c1.818,0.303,3.65,0.516,5.486,0.637
		L37.443,35.941z"/>
	<path fill="#1E1E1E" d="M53.24,48.985c0.449,0.014,0.896,0.027,1.346,0.027c2.266,0,4.529-0.174,6.775-0.501l7.641,9.364
		c0.268,0.33,0.666,0.512,1.078,0.512c0.135,0,0.271-0.021,0.404-0.061c0.541-0.166,0.928-0.641,0.98-1.203l1.082-11.684
		c4.152-1.717,8.117-4.043,11.746-6.994c0.596-0.484,0.688-1.36,0.201-1.955c-0.482-0.6-1.359-0.687-1.955-0.203
		C66.812,49.073,44.482,49.579,28.23,37.506c-0.615-0.459-1.488-0.33-1.943,0.287c-0.457,0.616-0.33,1.487,0.287,1.945
		c0.012,0.008,0.023,0.016,0.035,0.024l-2.244,11.913c-0.105,0.556,0.135,1.118,0.609,1.425c0.23,0.148,0.494,0.223,0.756,0.223
		c0.277,0,0.555-0.082,0.793-0.248l10.254-7.133c0.127-0.088,0.219-0.203,0.307-0.32c1.424,0.572,2.867,1.074,4.328,1.5
		l2.408,11.987c0.111,0.554,0.547,0.985,1.1,1.093c0.09,0.016,0.176,0.025,0.264,0.025c0.465,0,0.904-0.233,1.164-0.631L53.18,49.14
		C53.211,49.091,53.215,49.036,53.24,48.985z M69.008,53.483l-4.512-5.527c1.738-0.375,3.459-0.855,5.154-1.428L69.008,53.483z
		 M27.727,48.851l1.387-7.363c1.648,1.067,3.348,2.021,5.086,2.858L27.727,48.851z M45.879,55.229l-1.475-7.342
		c1.879,0.417,3.775,0.717,5.682,0.9L45.879,55.229z"/>
	<path fill="#1E1E1E" d="M33.314,54.938c-8.695,2.262-17.775,1.828-26.254-1.258c-0.723-0.265-1.521,0.107-1.783,0.83
		s0.111,1.52,0.832,1.783c2.398,0.873,4.844,1.537,7.314,2.01l3.461,11.271c0.166,0.539,0.641,0.926,1.203,0.977
		c0.043,0.004,0.086,0.006,0.127,0.006c0.516,0,0.992-0.287,1.234-0.75l5.582-10.751c3.014-0.184,6.02-0.656,8.986-1.428
		c0.742-0.192,1.186-0.952,0.994-1.696C34.818,55.192,34.074,54.739,33.314,54.938z M18.547,65.511l-2.066-6.723
		c1.785,0.221,3.578,0.338,5.375,0.352L18.547,65.511z"/>
	<path fill="#1E1E1E" d="M82.887,64.171c-9.848,2.256-20.26,1.061-29.318-3.371c-0.691-0.338-1.523-0.051-1.859,0.638
		c-0.338,0.69-0.053,1.522,0.639,1.86c1.188,0.582,2.404,1.092,3.633,1.568c-0.064,0.213-0.084,0.441-0.037,0.675l2.492,12.239
		c0.111,0.553,0.547,0.983,1.102,1.088c0.088,0.018,0.174,0.025,0.26,0.025c0.465,0,0.906-0.233,1.166-0.633l6.805-10.475
		c0.002-0.004,0.002-0.01,0.006-0.015c1.74,0.194,3.492,0.294,5.246,0.294c3.512,0,7.031-0.392,10.488-1.184
		c0.748-0.172,1.215-0.918,1.045-1.666C84.383,64.466,83.633,63.997,82.887,64.171z M60.482,73.896l-1.633-8.021
		c1.936,0.609,3.904,1.102,5.898,1.455L60.482,73.896z"/>
</g>
</svg>
