<?xml version="1.0" encoding="utf-8"?>
<!-- Generator: Adobe Illustrator 16.0.0, SVG Export Plug-In . SVG Version: 6.00 Build 0)  -->
<!DOCTYPE svg PUBLIC "-//W3C//DTD SVG 1.1//EN" "http://www.w3.org/Graphics/SVG/1.1/DTD/svg11.dtd">
<svg version="1.1" id="Layer_1" xmlns="http://www.w3.org/2000/svg" xmlns:xlink="http://www.w3.org/1999/xlink" x="0px" y="0px"
	 width="90px" height="90px" viewBox="0 0 90 90" enable-background="new 0 0 90 90" xml:space="preserve">
<g>
	<path fill="#1E1E1E" d="M52.385,21.558c0.603,0,1.092,0.49,1.092,1.093c0,0.768,0.623,1.391,1.391,1.391
		c0.769,0,1.392-0.623,1.392-1.391c0-2.137-1.738-3.875-3.874-3.875c-2.137,0-3.875,1.738-3.875,3.875
		c0,6.784,3.995,10.779,7.857,14.642c3.622,3.622,7.043,7.042,7.043,12.675c0,0.769,0.623,1.391,1.391,1.391
		c0.769,0,1.392-0.622,1.392-1.391c0-6.784-3.995-10.779-7.857-14.642c-3.622-3.622-7.043-7.042-7.043-12.675
		C51.292,22.048,51.781,21.558,52.385,21.558z"/>
	<path fill="#1E1E1E" d="M23.676,49.967c0,0.769,0.623,1.391,1.392,1.391s1.391-0.622,1.391-1.391c0-5.633,3.421-9.053,7.043-12.675
		c3.862-3.862,7.857-7.857,7.857-14.642c0-2.137-1.738-3.875-3.874-3.875c-2.137,0-3.875,1.738-3.875,3.875
		c0,0.768,0.623,1.391,1.392,1.391s1.391-0.623,1.391-1.391c0-0.603,0.489-1.093,1.093-1.093s1.092,0.49,1.092,1.093
		c0,5.633-3.42,9.053-7.042,12.675C27.671,39.188,23.676,43.183,23.676,49.967z"/>
	<path fill="#1E1E1E" d="M49.9,48.576c-0.768,0-1.391,0.623-1.391,1.391c0,1.973-1.604,3.576-3.575,3.576
		c-1.972,0-3.576-1.604-3.576-3.576c0-0.768-0.623-1.391-1.391-1.391c-0.769,0-1.392,0.623-1.392,1.391
		c0,3.506,2.853,6.357,6.358,6.357c3.505,0,6.357-2.852,6.357-6.357C51.292,49.199,50.669,48.576,49.9,48.576z"/>
	<path fill="#1E1E1E" d="M86.721,30.699h-1.983c-0.768,0-1.391,0.623-1.391,1.392s0.623,1.392,1.391,1.392h1.983
		c0.768,0,1.391-0.623,1.391-1.392S87.488,30.699,86.721,30.699z"/>
	<path fill="#1E1E1E" d="M62.88,33.482h1.983c0.768,0,1.391-0.623,1.391-1.392s-0.623-1.392-1.391-1.392H62.88
		c-0.768,0-1.391,0.623-1.391,1.392S62.112,33.482,62.88,33.482z"/>
	<path fill="#1E1E1E" d="M66.789,26.049c0.272,0.271,0.627,0.408,0.984,0.408c0.354,0,0.71-0.137,0.981-0.406
		c0.545-0.544,0.545-1.424,0.002-1.968l-1.408-1.411c-0.55-0.542-1.431-0.537-1.968,0.01c-0.541,0.545-0.537,1.426,0.008,1.966
		L66.789,26.049z"/>
	<path fill="#1E1E1E" d="M84.212,22.676c-0.543-0.543-1.424-0.543-1.968,0l-1.404,1.407c-0.543,0.544-0.543,1.424,0.002,1.968
		c0.271,0.27,0.627,0.406,0.981,0.406c0.357,0,0.712-0.137,0.984-0.408l1.404-1.405C84.755,24.101,84.755,23.22,84.212,22.676z"/>
	<path fill="#1E1E1E" d="M74.801,23.545c0.002,0,0.006,0,0.008,0c0.768-0.004,1.387-0.63,1.383-1.398l-0.002-1.379l0.002-0.601
		c0-0.769-0.623-1.392-1.391-1.392c-0.769,0-1.392,0.623-1.392,1.392v1.995C73.413,22.928,74.036,23.545,74.801,23.545z"/>
	<path fill="#1E1E1E" d="M46.325,64.868v-4.967c0-0.769-0.623-1.392-1.391-1.392c-0.769,0-1.392,0.623-1.392,1.392v4.967
		c0,0.769,0.623,1.392,1.392,1.392C45.702,66.26,46.325,65.637,46.325,64.868z"/>
	<path fill="#1E1E1E" d="M80.103,35.066c0-0.769-0.622-1.392-1.391-1.392h-7.955c-0.768,0-1.391,0.623-1.391,1.392
		c0,2.346-0.228,3.488-0.468,4.695c-0.256,1.287-0.521,2.618-0.521,5.238c0,2.993,2.081,5.504,4.871,6.176
		c-0.591,4.139-4.148,7.334-8.447,7.334c-4.706,0-8.535-3.825-8.543-8.529c0-0.005,0.001-0.008,0.001-0.013
		c0-3.506-2.853-6.357-6.358-6.357c-1.325,0-2.556,0.408-3.575,1.104V16.59h8.542c0.769,0,1.392-0.623,1.392-1.391v-4.966
		c0-0.769-0.623-1.392-1.392-1.392H35.001c-0.769,0-1.392,0.623-1.392,1.392v4.966c0,0.768,0.623,1.391,1.392,1.391h8.542v28.125
		c-1.02-0.696-2.25-1.104-3.575-1.104c-3.505,0-6.356,2.85-6.358,6.354c0,0.001,0,0.001,0,0.001c0,4.712-3.831,8.545-8.542,8.545
		c-4.3,0-7.857-3.195-8.448-7.334c2.791-0.672,4.873-3.182,4.873-6.176c0-2.62-0.267-3.951-0.522-5.238
		c-0.24-1.207-0.468-2.35-0.468-4.695c0-0.769-0.622-1.392-1.391-1.392h-7.955c-0.768,0-1.391,0.623-1.391,1.392
		c0,2.346-0.227,3.488-0.468,4.695C9.042,41.049,8.776,42.38,8.776,45c0,3.053,2.164,5.609,5.038,6.219
		c0.578,5.228,4.729,9.391,9.95,9.992c0.149,0.615,0.679,1.074,1.326,1.074c0.025,0,0.05-0.002,0.075-0.002
		c0.636-0.034,1.144-0.492,1.277-1.084c5.594-0.683,9.946-5.453,9.948-11.229c0,0,0-0.001,0-0.002c0-1.972,1.604-3.575,3.576-3.575
		c1.971,0,3.575,1.604,3.575,3.575c0,0.769,0.623,1.392,1.392,1.392c0.768,0,1.391-0.623,1.391-1.392
		c0-1.972,1.604-3.575,3.575-3.575c1.968,0,3.569,1.598,3.575,3.564c0,0.003-0.001,0.006-0.001,0.009
		c0,5.778,4.353,10.552,9.95,11.233c0.134,0.592,0.642,1.05,1.277,1.084c0.025,0,0.05,0.002,0.075,0.002
		c0.647,0,1.178-0.459,1.326-1.074c5.22-0.603,9.369-4.764,9.948-9.992c2.875-0.608,5.04-3.164,5.04-6.219
		c0-2.62-0.266-3.951-0.521-5.238C80.33,38.555,80.103,37.412,80.103,35.066z M11.559,45c0-2.346,0.227-3.487,0.467-4.695
		c0.206-1.037,0.42-2.103,0.493-3.848h5.23c0.074,1.745,0.287,2.811,0.493,3.848c0.24,1.208,0.468,2.35,0.468,4.695
		c0,1.971-1.603,3.574-3.572,3.576c-0.002,0-0.004-0.001-0.006-0.001c-0.001,0-0.003,0.001-0.003,0.001
		C13.16,48.572,11.559,46.971,11.559,45z M36.392,11.625h17.085v2.184H36.392V11.625z M74.739,48.576
		c-0.002,0-0.003-0.001-0.005-0.001s-0.003,0.001-0.005,0.001c-1.969-0.003-3.57-1.605-3.57-3.576c0-2.346,0.227-3.487,0.467-4.695
		c0.206-1.037,0.419-2.103,0.493-3.848h5.23c0.074,1.745,0.287,2.811,0.493,3.848c0.24,1.208,0.468,2.35,0.468,4.695
		C78.311,46.971,76.708,48.573,74.739,48.576z"/>
	<path fill="#1E1E1E" d="M23.746,33.084c0,0.769,0.623,1.391,1.391,1.391h1.983c0.769,0,1.391-0.622,1.391-1.391
		c0-0.768-0.622-1.391-1.391-1.391h-1.983C24.369,31.693,23.746,32.316,23.746,33.084z"/>
	<path fill="#1E1E1E" d="M5.263,31.693H3.279c-0.768,0-1.391,0.623-1.391,1.391c0,0.769,0.623,1.391,1.391,1.391h1.983
		c0.769,0,1.391-0.622,1.391-1.391C6.653,32.316,6.031,31.693,5.263,31.693z"/>
	<path fill="#1E1E1E" d="M9.156,25.076l-1.408-1.41c-0.549-0.543-1.43-0.537-1.968,0.008c-0.541,0.546-0.537,1.427,0.008,1.967
		l1.401,1.4c0.271,0.272,0.626,0.409,0.983,0.409c0.354,0,0.71-0.136,0.981-0.407C9.699,26.5,9.699,25.621,9.156,25.076z"/>
	<path fill="#1E1E1E" d="M22.223,27.45c0.357,0,0.713-0.137,0.984-0.409l1.404-1.404c0.543-0.543,0.543-1.424,0-1.967
		s-1.424-0.543-1.967,0l-1.405,1.406c-0.543,0.545-0.543,1.424,0.002,1.967C21.513,27.314,21.868,27.45,22.223,27.45z"/>
	<path fill="#1E1E1E" d="M15.2,24.539c0.002,0,0.006,0,0.008,0c0.768-0.005,1.387-0.631,1.383-1.398l-0.002-1.379l0.002-0.602
		c0-0.769-0.623-1.391-1.391-1.391c-0.769,0-1.392,0.622-1.392,1.391v1.995C13.812,23.921,14.436,24.539,15.2,24.539z"/>
	<path fill="#1E1E1E" d="M45.852,78.355c-0.602,0.027-1.218,0.029-1.813,0c-0.737-0.039-1.419,0.553-1.457,1.32
		c-0.037,0.768,0.555,1.42,1.321,1.457c0.341,0.017,0.685,0.025,1.032,0.025c0.351,0,0.702-0.009,1.049-0.025
		c0.769-0.037,1.36-0.688,1.323-1.455S46.595,78.301,45.852,78.355z"/>
	<path fill="#1E1E1E" d="M52.832,76.607c-0.541,0.258-1.1,0.489-1.668,0.693c-0.724,0.259-1.101,1.055-0.842,1.777
		c0.203,0.568,0.738,0.923,1.31,0.923c0.155,0,0.313-0.026,0.467-0.081c0.658-0.235,1.298-0.502,1.925-0.798
		c0.694-0.329,0.989-1.158,0.662-1.852C54.355,76.574,53.523,76.279,52.832,76.607z"/>
	<path fill="#1E1E1E" d="M64.11,65.306c-0.718-0.263-1.52,0.114-1.779,0.837c-0.207,0.573-0.44,1.133-0.696,1.678
		c-0.328,0.695-0.031,1.524,0.665,1.852c0.19,0.09,0.393,0.133,0.592,0.133c0.521,0,1.021-0.295,1.258-0.799
		c0.295-0.624,0.562-1.266,0.797-1.92C65.208,66.363,64.832,65.566,64.11,65.306z"/>
	<path fill="#1E1E1E" d="M58.616,72.317c-0.405,0.446-0.833,0.875-1.28,1.279c-0.571,0.517-0.613,1.396-0.098,1.964
		c0.273,0.305,0.652,0.459,1.03,0.459c0.334,0,0.667-0.12,0.934-0.36c0.514-0.467,1.007-0.958,1.474-1.474
		c0.517-0.568,0.474-1.448-0.095-1.965C60.009,71.705,59.134,71.746,58.616,72.317z"/>
	<path fill="#1E1E1E" d="M27.543,66.159c-0.258-0.722-1.058-1.093-1.779-0.836c-0.724,0.261-1.098,1.058-0.836,1.78
		c0.236,0.655,0.504,1.297,0.801,1.922c0.237,0.501,0.735,0.794,1.256,0.794c0.201,0,0.403-0.044,0.598-0.135
		c0.692-0.33,0.987-1.159,0.657-1.853C27.981,67.289,27.749,66.73,27.543,66.159z"/>
	<path fill="#1E1E1E" d="M38.722,77.307c-0.57-0.204-1.129-0.436-1.668-0.691c-0.694-0.326-1.525-0.037-1.854,0.66
		c-0.329,0.693-0.034,1.522,0.658,1.853c0.625,0.297,1.269,0.562,1.929,0.798c0.155,0.055,0.312,0.081,0.467,0.081
		c0.572,0,1.108-0.354,1.311-0.925C39.822,78.359,39.445,77.563,38.722,77.307z"/>
	<path fill="#1E1E1E" d="M31.258,72.324c-0.521-0.568-1.398-0.604-1.965-0.09c-0.566,0.518-0.607,1.396-0.091,1.965
		c0.469,0.514,0.96,1.004,1.474,1.47c0.267,0.24,0.6,0.36,0.934,0.36c0.379,0,0.757-0.154,1.03-0.459
		c0.517-0.568,0.474-1.447-0.097-1.964C32.095,73.201,31.666,72.773,31.258,72.324z"/>
</g>
</svg>
