<?xml version="1.0" encoding="utf-8"?>
<!-- Generator: Adobe Illustrator 16.0.0, SVG Export Plug-In . SVG Version: 6.00 Build 0)  -->
<!DOCTYPE svg PUBLIC "-//W3C//DTD SVG 1.1//EN" "http://www.w3.org/Graphics/SVG/1.1/DTD/svg11.dtd">
<svg version="1.1" id="Layer_1" xmlns="http://www.w3.org/2000/svg" xmlns:xlink="http://www.w3.org/1999/xlink" x="0px" y="0px"
	 width="90px" height="90px" viewBox="0 0 90 90" enable-background="new 0 0 90 90" xml:space="preserve">
<g>
	<path fill="#1E1E1E" d="M41.251,18.588c0.217,0.375,0.385,0.805,0.559,1.236c0.479,1.184,1.02,2.523,2.33,3.282
		c1.02,0.59,2.438,0.583,3.951,0.376c0.948-0.127,1.871-0.127,2.819,0c0.594,0.08,1.186,0.156,1.745,0.156
		c0.865,0,1.587-0.174,2.206-0.532c1.311-0.759,1.851-2.099,2.328-3.282c0.173-0.432,0.343-0.861,0.559-1.236
		c0.204-0.354,0.483-0.695,0.762-1.046c0.759-0.958,1.705-2.147,1.705-3.718c0-1.568-0.946-2.758-1.705-3.715
		c-0.278-0.352-0.558-0.693-0.762-1.047c-0.216-0.374-0.386-0.805-0.559-1.236c-0.478-1.183-1.019-2.522-2.329-3.281
		c-1.02-0.588-2.434-0.58-3.95-0.376c-0.948,0.128-1.87,0.128-2.819,0c-1.508-0.204-2.929-0.212-3.949,0.376
		c-1.311,0.757-1.852,2.098-2.33,3.28c-0.174,0.431-0.343,0.861-0.561,1.237c-0.205,0.354-0.482,0.695-0.762,1.047
		c-0.76,0.957-1.705,2.148-1.705,3.715c0,1.57,0.946,2.76,1.705,3.718C40.769,17.893,41.046,18.235,41.251,18.588z M42.667,11.84
		c0.367-0.463,0.723-0.92,0.991-1.385c0.28-0.482,0.507-1.032,0.732-1.588c0.339-0.842,0.661-1.636,1.144-1.914
		c0.408-0.236,1.334-0.143,2.183-0.028c1.197,0.162,2.365,0.163,3.566,0c0.852-0.114,1.773-0.208,2.184,0.028
		c0.481,0.279,0.803,1.072,1.143,1.914c0.224,0.557,0.451,1.106,0.73,1.588c0.269,0.465,0.625,0.922,0.991,1.383
		c0.566,0.715,1.101,1.389,1.101,1.986c0,0.6-0.534,1.274-1.102,1.988c-0.365,0.461-0.722,0.918-0.99,1.383
		c-0.279,0.482-0.507,1.033-0.73,1.588c-0.34,0.843-0.66,1.637-1.143,1.916c-0.408,0.234-1.332,0.143-2.184,0.027
		c-0.6-0.081-1.205-0.158-1.783-0.158c-0.58,0-1.184,0.077-1.784,0.158c-0.854,0.115-1.778,0.207-2.184-0.027
		c-0.482-0.279-0.803-1.074-1.143-1.916c-0.225-0.555-0.451-1.105-0.73-1.588c-0.27-0.465-0.625-0.922-0.99-1.383
		c-0.568-0.714-1.103-1.389-1.103-1.988C41.567,13.227,42.101,12.553,42.667,11.84z"/>
	<path fill="#1E1E1E" d="M35.206,54.493c1.728-0.699,2.596-2.426,3.362-3.947c0.453-0.902,0.883-1.756,1.4-2.266
		c0.481-0.471,1.312-0.864,2.189-1.28c1.57-0.742,3.349-1.585,4.107-3.374c0.758-1.788,0.131-3.652-0.422-5.296
		c-0.311-0.922-0.604-1.793-0.598-2.469c0.005-0.729,0.319-1.629,0.653-2.582c0.562-1.609,1.201-3.434,0.501-5.158
		c-0.698-1.732-2.427-2.602-3.953-3.367c-0.9-0.453-1.752-0.881-2.262-1.396c-0.471-0.48-0.865-1.311-1.281-2.189
		c-0.742-1.568-1.584-3.346-3.373-4.105c-1.566-0.667-3.566-0.162-5.301,0.424c-0.912,0.309-1.775,0.6-2.46,0.6
		c-0.729-0.006-1.63-0.322-2.583-0.656c-1.697-0.595-3.633-1.121-5.16-0.504c-1.729,0.697-2.596,2.422-3.361,3.945
		c-0.453,0.901-0.883,1.754-1.404,2.266c-0.48,0.473-1.311,0.865-2.189,1.282c-1.568,0.743-3.344,1.585-4.104,3.374
		c-0.76,1.789-0.131,3.654,0.424,5.299c0.311,0.921,0.604,1.791,0.599,2.465c-0.006,0.729-0.32,1.627-0.654,2.58
		c-0.562,1.609-1.201,3.433-0.501,5.158c0.695,1.732,2.421,2.6,3.942,3.366c0.902,0.453,1.754,0.882,2.266,1.402
		c0.471,0.48,0.863,1.311,1.281,2.188c0.744,1.568,1.588,3.348,3.377,4.107c1.572,0.668,3.567,0.16,5.299-0.426
		c0.912-0.309,1.773-0.598,2.462-0.598c0.729,0.006,1.63,0.32,2.583,0.655c1.137,0.397,2.312,0.81,3.511,0.81
		C34.146,54.8,34.701,54.696,35.206,54.493z M30.963,51.364c-1.124-0.393-2.288-0.801-3.52-0.812c-1.127,0-2.249,0.38-3.334,0.746
		c-1.249,0.422-2.56,0.82-3.322,0.499c-0.817-0.347-1.368-1.507-1.952-2.737c-0.496-1.047-1.01-2.129-1.809-2.942
		c-0.834-0.851-1.935-1.406-3-1.941c-1.135-0.57-2.309-1.16-2.614-1.922c-0.306-0.758,0.128-1.998,0.548-3.199
		c0.395-1.124,0.801-2.286,0.812-3.477c0.008-1.142-0.374-2.276-0.745-3.375c-0.435-1.289-0.846-2.508-0.5-3.322
		c0.348-0.816,1.507-1.367,2.734-1.949c1.049-0.496,2.134-1.01,2.947-1.81c0.852-0.833,1.406-1.937,1.942-3.003
		c0.571-1.135,1.162-2.311,1.918-2.615c0.704-0.287,1.927,0.105,3.198,0.551c1.125,0.394,2.289,0.803,3.517,0.812
		c1.128,0,2.251-0.379,3.336-0.746c1.249-0.422,2.56-0.825,3.323-0.498c0.816,0.346,1.365,1.506,1.947,2.735
		c0.498,1.049,1.011,2.132,1.812,2.95c0.834,0.844,1.933,1.396,2.996,1.93c1.139,0.572,2.315,1.164,2.621,1.926
		c0.307,0.755-0.127,1.996-0.547,3.197c-0.394,1.125-0.801,2.289-0.811,3.477c-0.01,1.143,0.373,2.28,0.744,3.381
		c0.434,1.287,0.844,2.505,0.498,3.322c-0.346,0.813-1.507,1.363-2.736,1.945c-1.047,0.496-2.131,1.01-2.949,1.81
		c-0.846,0.834-1.4,1.935-1.936,2.998c-0.572,1.138-1.164,2.313-1.921,2.619C33.451,52.198,32.234,51.811,30.963,51.364z"/>
	<path fill="#1E1E1E" d="M32.98,27.592c-0.543-0.543-1.424-0.543-1.967,0c-1.801,1.801-2.792,4.193-2.792,6.74
		c0,0.019,0.001,0.037,0.001,0.057c-0.038-0.047-0.057-0.102-0.102-0.145c-1.35-1.285-2.094-3.023-2.094-4.89
		c-0.001-0.767-0.624-1.39-1.391-1.39c0,0,0,0-0.002,0c-0.768,0-1.39,0.623-1.39,1.392c0.002,2.634,1.052,5.085,2.958,6.901
		c0.028,0.027,0.066,0.037,0.096,0.062c-2.461-0.016-4.926,0.91-6.799,2.784c-0.543,0.544-0.543,1.425,0,1.968s1.424,0.543,1.967,0
		c2.632-2.633,6.916-2.631,9.547,0c0.271,0.271,0.627,0.406,0.983,0.406s0.712-0.135,0.983-0.406c0.543-0.543,0.543-1.424,0-1.968
		c-1.275-1.274-1.979-2.97-1.979-4.772s0.703-3.498,1.979-4.773C33.523,29.016,33.523,28.135,32.98,27.592z"/>
	<path fill="#1E1E1E" d="M80.446,31.167c0.004-0.396,0.216-0.992,0.422-1.568c0.41-1.148,0.919-2.578,0.353-3.982
		c-0.566-1.402-1.927-2.077-3.021-2.619c-0.547-0.27-1.113-0.551-1.391-0.832c-0.307-0.312-0.592-0.906-0.868-1.479
		c-0.546-1.137-1.166-2.425-2.507-2.995c-1.164-0.491-2.635-0.139-3.894,0.276c-0.599,0.197-1.218,0.402-1.667,0.402h-0.002
		c-0.396-0.004-0.992-0.217-1.568-0.422c-1.203-0.43-2.752-0.85-3.98-0.354c-1.402,0.567-2.077,1.928-2.619,3.02
		c-0.271,0.549-0.551,1.115-0.834,1.395c-0.311,0.305-0.904,0.59-1.479,0.867c-1.135,0.545-2.424,1.166-2.991,2.506
		c-0.571,1.341-0.123,2.697,0.272,3.893c0.2,0.605,0.406,1.231,0.402,1.67c-0.004,0.396-0.216,0.992-0.422,1.568
		c-0.409,1.148-0.918,2.578-0.352,3.981c0.567,1.403,1.926,2.077,3.019,2.618c0.548,0.271,1.116,0.553,1.394,0.836
		c0.307,0.311,0.592,0.904,0.869,1.479c0.545,1.137,1.166,2.424,2.506,2.99c1.166,0.5,2.638,0.145,3.895-0.273
		c0.6-0.197,1.221-0.402,1.668-0.402h0.001c0.396,0.004,0.991,0.217,1.567,0.422c0.796,0.285,1.697,0.607,2.635,0.607
		c0.478,0,0.932-0.086,1.347-0.253c1.401-0.567,2.075-1.927,2.617-3.019c0.271-0.549,0.554-1.115,0.839-1.396
		c0.31-0.305,0.903-0.59,1.478-0.867c1.136-0.547,2.423-1.166,2.989-2.506c0.572-1.344,0.123-2.701-0.273-3.899
		C80.649,32.225,80.442,31.6,80.446,31.167z M78.21,33.705c0.241,0.73,0.516,1.56,0.354,1.938c-0.159,0.376-0.944,0.753-1.636,1.087
		c-0.779,0.375-1.584,0.762-2.223,1.391c-0.618,0.607-1.006,1.389-1.38,2.144c-0.351,0.706-0.745,1.505-1.168,1.675
		c-0.393,0.164-1.228-0.117-2.002-0.395c-0.794-0.283-1.613-0.576-2.515-0.584c-0.885,0-1.722,0.275-2.531,0.543
		c-0.761,0.253-1.582,0.507-1.936,0.355c-0.375-0.16-0.753-0.945-1.086-1.637c-0.375-0.779-0.762-1.584-1.392-2.225
		c-0.607-0.617-1.388-1.004-2.142-1.378c-0.705-0.349-1.505-0.743-1.676-1.167c-0.17-0.423,0.129-1.264,0.395-2.005
		c0.281-0.792,0.574-1.612,0.582-2.476c0.01-0.9-0.271-1.749-0.543-2.57c-0.24-0.729-0.514-1.555-0.354-1.932
		s0.945-0.755,1.639-1.088c0.777-0.375,1.582-0.762,2.222-1.392c0.616-0.607,1.003-1.388,1.376-2.142
		c0.35-0.705,0.746-1.504,1.168-1.675c0.399-0.16,1.229,0.116,2.004,0.394c0.793,0.283,1.613,0.576,2.518,0.584
		c0.885,0,1.721-0.275,2.529-0.544c0.76-0.251,1.59-0.495,1.933-0.356c0.376,0.16,0.753,0.947,1.087,1.641
		c0.375,0.778,0.762,1.582,1.393,2.224c0.605,0.616,1.385,1.002,2.139,1.376c0.705,0.349,1.506,0.744,1.676,1.168
		c0.172,0.422-0.129,1.263-0.393,2.004c-0.283,0.793-0.576,1.611-0.584,2.48C77.657,32.04,77.938,32.885,78.21,33.705z"/>
	<path fill="#1E1E1E" d="M72.433,29.665c-1.877,0-3.559,0.858-4.672,2.203c-1.113-1.345-2.793-2.203-4.672-2.203
		c-0.768,0-1.391,0.623-1.391,1.391c0,0.769,0.623,1.391,1.391,1.391c1.81,0,3.281,1.473,3.281,3.281
		c0,0.769,0.623,1.391,1.391,1.391c0.769,0,1.392-0.622,1.392-1.391c0-1.809,1.472-3.281,3.28-3.281
		c0.769,0,1.391-0.622,1.391-1.391C73.823,30.288,73.201,29.665,72.433,29.665z"/>
	<path fill="#1E1E1E" d="M48.295,19.112c0.769,0,1.392-0.623,1.392-1.392c0-1.81,1.471-3.28,3.28-3.28
		c0.769,0,1.392-0.623,1.392-1.392s-0.623-1.392-1.392-1.392c-3.343,0-6.063,2.721-6.063,6.063
		C46.903,18.489,47.526,19.112,48.295,19.112z"/>
	<path fill="#1E1E1E" d="M69.938,49.364c-2.276-1.289-5.189-1.244-7.453,0.097c-0.424,0.251-0.682,0.708-0.682,1.2
		c0.009,2.674,1.441,5.145,3.738,6.447c1.105,0.627,2.359,0.959,3.625,0.959c1.34,0,2.662-0.363,3.826-1.053
		c0.424-0.251,0.684-0.708,0.682-1.201C73.668,53.14,72.235,50.669,69.938,49.364z M69.167,55.286c-0.785,0-1.564-0.207-2.253-0.598
		c-1.188-0.674-2.006-1.856-2.251-3.199c1.268-0.475,2.723-0.373,3.901,0.295c1.19,0.676,2.008,1.857,2.253,3.2
		C70.289,55.183,69.73,55.286,69.167,55.286z"/>
	<path fill="#1E1E1E" d="M40.044,55.749c-2.562-0.697-5.35,0.027-7.208,1.889c-1.866,1.867-2.591,4.628-1.892,7.207
		c0.13,0.476,0.5,0.848,0.977,0.977c0.648,0.178,1.318,0.268,1.988,0.268c1.978,0,3.832-0.766,5.223-2.154
		c1.867-1.869,2.591-4.631,1.889-7.21C40.892,56.249,40.521,55.878,40.044,55.749z M37.166,61.967
		c-0.865,0.864-2.021,1.341-3.256,1.341c-0.143,0-0.287-0.007-0.432-0.02c-0.127-1.367,0.342-2.701,1.326-3.684
		c0.963-0.966,2.312-1.441,3.684-1.32C38.617,59.65,38.148,60.983,37.166,61.967z"/>
	<path fill="#1E1E1E" d="M57.468,54.703c0.908-3.392,2.078-6.267,3.586-8.023c0.501-0.583,0.434-1.46-0.148-1.96
		c-0.586-0.5-1.461-0.434-1.962,0.148c-1.839,2.143-3.195,5.454-4.202,9.197c-0.014-0.002-0.027-0.003-0.042-0.005
		c-0.438-9.627-1.493-20.135-4.196-27.971c-0.252-0.727-1.041-1.118-1.769-0.861c-0.726,0.25-1.11,1.043-0.86,1.768
		c2.578,7.473,3.607,17.615,4.042,26.983c-1.149,0.086-2.275,0.316-3.374,0.703c-1.207-2.438-2.63-4.539-4.324-5.95
		c-0.593-0.495-1.469-0.411-1.959,0.177c-0.491,0.592-0.412,1.469,0.178,1.959c1.39,1.158,2.586,2.905,3.618,4.97
		c-1.282,0.751-2.52,1.721-3.709,2.911c-0.424,0.422-0.527,1.069-0.262,1.604c0.049,0.098,4.82,9.772,4.82,19.248
		c0,3.506,2.853,6.357,6.358,6.357s6.358-2.852,6.358-6.357c0-3.984,0.818-15.144,4.559-18.883c0.543-0.543,0.543-1.424,0-1.967
		C64.032,58.603,61.412,56.028,57.468,54.703z M56.837,79.599c0,1.973-1.604,3.576-3.575,3.576s-3.575-1.604-3.575-3.576
		c0-3.8,3.479-11.598,4.818-14.28c0.344-0.687,0.065-1.522-0.621-1.865c-0.691-0.347-1.523-0.065-1.865,0.622
		c-0.122,0.242-1.818,3.662-3.225,7.513c-1.103-5.274-2.935-9.681-3.779-11.542c2.46-2.217,5.107-3.34,7.878-3.34
		c3.712,0,6.842,2.014,8.352,3.188C56.891,65.929,56.837,79.008,56.837,79.599z"/>
</g>
</svg>
