<?xml version="1.0" encoding="utf-8"?>
<!-- Generator: Adobe Illustrator 16.0.0, SVG Export Plug-In . SVG Version: 6.00 Build 0)  -->
<!DOCTYPE svg PUBLIC "-//W3C//DTD SVG 1.1//EN" "http://www.w3.org/Graphics/SVG/1.1/DTD/svg11.dtd">
<svg version="1.1" id="Layer_1" xmlns="http://www.w3.org/2000/svg" xmlns:xlink="http://www.w3.org/1999/xlink" x="0px" y="0px"
	 width="90px" height="90px" viewBox="0 0 90 90" enable-background="new 0 0 90 90" xml:space="preserve">
<g>
	<g>
		<path fill="#1E1E1E" d="M47.791,17.833c-0.773,0-1.402-0.628-1.402-1.403c0-0.767-0.623-1.39-1.389-1.39
			c-0.768,0-1.391,0.623-1.391,1.39c0,0.775-0.629,1.403-1.404,1.403c-0.773,0-1.402-0.628-1.402-1.403
			c0-2.313,1.883-4.195,4.197-4.195c2.312,0,4.193,1.882,4.193,4.195C49.193,17.204,48.566,17.833,47.791,17.833z"/>
	</g>
	<g>
		<path fill="#1E1E1E" d="M80.059,57.542H9.941c-0.775,0-1.402-0.628-1.402-1.403c0-0.774,0.627-1.402,1.402-1.402h70.117
			c0.773,0,1.402,0.628,1.402,1.402C81.461,56.914,80.832,57.542,80.059,57.542z"/>
	</g>
	<g>
		<path fill="#1E1E1E" d="M75.049,52.826c-0.773,0-1.402-0.629-1.402-1.404c0-15.796-12.85-28.646-28.646-28.646
			S16.353,35.626,16.353,51.422c0,0.775-0.629,1.404-1.402,1.404c-0.776,0-1.403-0.629-1.403-1.404
			C13.547,34.079,27.656,19.97,45,19.97s31.453,14.109,31.453,31.452C76.453,52.197,75.824,52.826,75.049,52.826z"/>
	</g>
	<g>
		<rect x="62.529" y="71.355" fill="#1E1E1E" width="0" height="0"/>
		<path fill="#1E1E1E" d="M62.588,72.758c-0.773,0-1.41-0.629-1.41-1.402c0-0.775,0.615-1.404,1.393-1.404h0.018
			c0.775,0,1.402,0.629,1.402,1.404C63.99,72.129,63.363,72.758,62.588,72.758z"/>
	</g>
	<path fill="#1E1E1E" d="M70.041,59.936H55.016c-0.773,0-1.402,0.629-1.402,1.402v8.598c-6.561-0.141-11.051-1.262-15.785-2.445
		c-5.008-1.252-10.186-2.547-17.871-2.547h-2.504c-0.607,0-1.102-0.492-1.102-1.102c0-0.605,0.494-1.1,1.103-1.1L45,62.74
		c1.988,0,3.605,1.617,3.605,3.605c0,0.775,0.627,1.404,1.402,1.404s1.402-0.629,1.402-1.404c0-3.535-2.875-6.41-6.41-6.41H17.453
		c-2.154,0-3.908,1.754-3.908,3.906c0,2.154,1.754,3.908,3.909,3.908h2.504c7.341,0,12.124,1.195,17.188,2.461
		c4.697,1.174,9.543,2.385,16.467,2.531v3.621c0,0.775,0.629,1.402,1.402,1.402h15.025c0.775,0,1.404-0.627,1.404-1.402V61.338
		C71.445,60.564,70.816,59.936,70.041,59.936z M68.639,74.961H56.418V62.742h12.221V74.961z"/>
</g>
</svg>
